<svg width="500" height="269" viewBox="0 0 500 269" fill="none" xmlns="http://www.w3.org/2000/svg">
<g opacity="0.1">
<g clip-path="url(#clip0_18_9)">
<path fill-rule="evenodd" clip-rule="evenodd" d="M23.3963 212.359C20.8846 213.281 18.5878 214.951 17.0628 216.965C16.071 218.274 14.9972 220.845 10.8521 231.839C9.94387 234.248 8.61223 237.752 7.89342 239.626C7.17439 241.5 6.32227 243.745 5.99998 244.615C5.67745 245.485 4.3419 248.989 3.03201 252.402C-0.114696 260.601 -0.0849089 260.501 0.040588 262.422C0.203929 264.918 1.60955 266.945 3.81429 267.864C5.07439 268.388 8.2184 268.331 9.53344 267.76C10.7733 267.221 11.9423 266.057 12.6154 264.691C13.2507 263.401 15.5055 257.601 20.2307 245.101C22.4818 239.147 23.9314 235.33 26.1918 229.405C27.06 227.13 28.555 223.188 29.5139 220.645C30.4729 218.102 31.5245 215.336 31.8504 214.497C32.1766 213.66 32.4435 212.877 32.4435 212.757C32.4435 212.267 30.721 212.007 27.5851 212.023C25.4939 212.034 23.9429 212.158 23.3963 212.359ZM93.5803 213.696C93.6952 215.513 94.7998 218.453 95.2608 218.169C95.3987 218.084 95.4435 218.124 95.3602 218.259C95.0095 218.824 97.2199 221.119 99.3695 222.42C101.671 223.814 101.365 223.785 115.213 223.928C127.802 224.058 128.056 224.07 129.408 224.611C131.504 225.449 133.724 227.606 134.761 229.811L135.6 231.595L135.682 239.018C135.738 244.128 135.673 246.857 135.473 247.778C134.831 250.739 132.635 253.523 129.977 254.744C127.989 255.658 125.932 255.799 114.471 255.804C102.099 255.809 101.854 255.839 98.9292 257.655C95.7716 259.617 93.7861 262.796 93.5468 266.273L93.413 268.219H111.821C126.892 268.219 130.564 268.155 132.08 267.866C140.932 266.178 148.02 258.906 149.627 249.863C149.773 249.041 149.883 244.835 149.883 240.094C149.883 230.976 149.731 229.536 148.411 226.242C147.07 222.89 145.977 221.254 143.291 218.571C140.628 215.91 139.063 214.883 135.454 213.423C131.981 212.018 131.787 212.006 111.8 212.006H93.4734L93.5803 213.696ZM189.193 212.804C189.193 214.054 189.866 216.329 190.694 217.878C191.749 219.851 193.887 221.801 196.201 222.903L198.104 223.808L211.051 223.93L223.996 224.052L225.699 224.888C227.803 225.919 229.639 227.706 230.593 229.649L231.31 231.109V239.869V248.63L230.613 249.948C229.015 252.977 226.108 255.106 222.955 255.56C222.043 255.692 216.348 255.801 210.296 255.804C198.445 255.809 198.125 255.838 195.541 257.151C193.845 258.013 191.577 260.21 190.71 261.832C189.813 263.508 189.193 265.694 189.193 267.176V268.219L207.688 268.216C224.81 268.213 226.346 268.179 228.381 267.758C234.485 266.492 240.444 261.922 243.251 256.353C245.459 251.971 245.948 248.442 245.771 238.231C245.636 230.521 245.448 229.185 243.996 225.633C241.511 219.548 236.015 214.73 229.234 212.688C227.409 212.139 227.351 212.137 208.298 212.069L189.193 212V212.804ZM285.719 213.293C286.221 217.55 288.857 221.137 292.864 223.014L294.548 223.802L302.238 223.864C306.468 223.897 312.297 223.953 315.19 223.988L320.455 224.052L322.314 224.968C325.281 226.431 327.255 228.96 327.87 232.09C328.061 233.064 328.128 235.905 328.071 240.721C327.989 247.561 327.959 247.963 327.426 249.228C326.623 251.126 325.351 252.746 323.777 253.869C321.273 255.657 321.439 255.637 307.366 255.796C294.985 255.936 294.768 255.947 293.394 256.497C291.732 257.162 289.439 258.793 288.398 260.052C286.898 261.863 285.634 265.179 285.634 267.297V268.219H304.13C324.437 268.219 324.727 268.202 328.216 266.754C335.576 263.7 340.764 257.174 341.922 249.512C342.353 246.669 342.416 234.192 342.015 231.319C341.71 229.126 340.781 226.043 339.9 224.295C337.381 219.293 332.528 215.051 327.199 213.192C323.937 212.054 323.444 212.029 303.974 212.014L285.567 212L285.719 213.293ZM392.452 212.246C389.632 212.659 386.154 214.616 384.446 216.751C383.095 218.437 381.924 220.973 381.6 222.908C381.411 224.04 381.348 230.492 381.396 244.006L381.468 263.474L382.026 264.517C382.333 265.091 382.693 265.493 382.825 265.411C382.957 265.33 383.05 265.353 383.03 265.464C382.939 265.984 383.13 266.244 384.104 266.942C386.92 268.957 391.329 268.322 393.247 265.625C394.571 263.765 394.528 264.685 394.528 237.306C394.528 213.361 394.506 212.008 394.102 212.036C393.866 212.053 393.126 212.147 392.452 212.246ZM434.082 212.928C434.082 215.167 435.303 218.086 437.126 220.204C438.307 221.578 440.703 223.106 442.593 223.692C444.097 224.159 444.924 224.173 469.816 224.168C498.781 224.162 496.5 224.316 498.381 222.238C499.628 220.86 500.006 219.876 500 218.037C499.994 216.224 499.45 214.875 498.24 213.669C496.435 211.87 499.16 212.006 464.87 212.006H434.082V212.928ZM43.8719 233.064C41.6193 234.216 39.7431 236.192 38.4684 238.756L37.4487 240.806L37.4561 244.11C37.4623 247.12 37.5223 247.564 38.1297 249.117C38.4963 250.053 38.9041 251.039 39.0359 251.307C39.1677 251.575 39.6511 252.834 40.1095 254.105C40.5684 255.377 41.5424 257.95 42.2745 259.824C43.0065 261.698 44.0115 264.292 44.5076 265.588L45.4097 267.946L46.3457 267.617C50.7253 266.076 54.1736 260.929 54.1736 255.93C54.1736 253.59 53.9662 252.938 49.7684 242.06C48.942 239.918 47.7545 236.825 47.1301 235.185C46.5052 233.546 45.8844 232.21 45.75 232.216C45.6158 232.223 44.7706 232.604 43.8719 233.064ZM470.095 233.521C466.968 234.295 463.597 236.909 462.221 239.628C460.714 242.605 460.695 242.777 460.701 253.602C460.706 262.735 460.74 263.55 461.164 264.481C461.898 266.089 463.249 267.407 464.639 267.866C466.171 268.374 468.74 268.258 470.061 267.62C471.193 267.075 472.79 265.136 473.139 263.889C473.297 263.316 473.39 257.544 473.39 248.082L473.392 233.177L472.355 233.198C471.784 233.209 470.768 233.355 470.095 233.521Z" fill="white"/>
</g>
<g clip-path="url(#clip1_18_9)">
<path fill-rule="evenodd" clip-rule="evenodd" d="M23.3963 106.359C20.8846 107.281 18.5878 108.951 17.0628 110.965C16.071 112.274 14.9972 114.845 10.8521 125.839C9.94387 128.248 8.61223 131.752 7.89342 133.626C7.17439 135.5 6.32227 137.745 5.99998 138.615C5.67745 139.485 4.3419 142.989 3.03201 146.402C-0.114696 154.601 -0.0849089 154.501 0.040588 156.422C0.203929 158.918 1.60955 160.945 3.81429 161.864C5.07439 162.388 8.2184 162.331 9.53344 161.76C10.7733 161.221 11.9423 160.057 12.6154 158.691C13.2507 157.401 15.5055 151.601 20.2307 139.101C22.4818 133.147 23.9314 129.33 26.1918 123.405C27.06 121.13 28.555 117.188 29.5139 114.645C30.4729 112.102 31.5245 109.336 31.8504 108.497C32.1766 107.66 32.4435 106.877 32.4435 106.757C32.4435 106.267 30.721 106.007 27.5851 106.023C25.4939 106.034 23.9429 106.158 23.3963 106.359ZM93.5803 107.696C93.6952 109.513 94.7998 112.453 95.2608 112.169C95.3987 112.084 95.4435 112.124 95.3602 112.259C95.0095 112.824 97.2199 115.119 99.3695 116.42C101.671 117.814 101.365 117.785 115.213 117.928C127.802 118.058 128.056 118.07 129.408 118.611C131.504 119.449 133.724 121.606 134.761 123.811L135.6 125.595L135.682 133.018C135.738 138.128 135.673 140.857 135.473 141.778C134.831 144.739 132.635 147.523 129.977 148.744C127.989 149.658 125.932 149.799 114.471 149.804C102.099 149.809 101.854 149.839 98.9292 151.655C95.7716 153.617 93.7861 156.796 93.5468 160.273L93.413 162.219H111.821C126.892 162.219 130.564 162.155 132.08 161.866C140.932 160.178 148.02 152.906 149.627 143.863C149.773 143.041 149.883 138.835 149.883 134.094C149.883 124.976 149.731 123.536 148.411 120.242C147.07 116.89 145.977 115.254 143.291 112.571C140.628 109.91 139.063 108.883 135.454 107.423C131.981 106.018 131.787 106.006 111.8 106.006H93.4734L93.5803 107.696ZM189.193 106.804C189.193 108.054 189.866 110.329 190.694 111.878C191.749 113.851 193.887 115.801 196.201 116.903L198.104 117.808L211.051 117.93L223.996 118.052L225.699 118.888C227.803 119.919 229.639 121.706 230.593 123.649L231.31 125.109V133.869V142.63L230.613 143.948C229.015 146.977 226.108 149.106 222.955 149.56C222.043 149.692 216.348 149.801 210.296 149.804C198.445 149.809 198.125 149.838 195.541 151.151C193.845 152.013 191.577 154.21 190.71 155.832C189.813 157.508 189.193 159.694 189.193 161.176V162.219L207.688 162.216C224.81 162.213 226.346 162.179 228.381 161.758C234.485 160.492 240.444 155.922 243.251 150.353C245.459 145.971 245.948 142.442 245.771 132.231C245.636 124.521 245.448 123.185 243.996 119.633C241.511 113.548 236.015 108.73 229.234 106.688C227.409 106.139 227.351 106.137 208.298 106.069L189.193 106V106.804ZM285.719 107.293C286.221 111.55 288.857 115.137 292.864 117.014L294.548 117.802L302.238 117.864C306.468 117.897 312.297 117.953 315.19 117.988L320.455 118.052L322.314 118.968C325.281 120.431 327.255 122.96 327.87 126.09C328.061 127.064 328.128 129.905 328.071 134.721C327.989 141.561 327.959 141.963 327.426 143.228C326.623 145.126 325.351 146.746 323.777 147.869C321.273 149.657 321.439 149.637 307.366 149.796C294.985 149.936 294.768 149.947 293.394 150.497C291.732 151.162 289.439 152.793 288.398 154.052C286.898 155.863 285.634 159.179 285.634 161.297V162.219H304.13C324.437 162.219 324.727 162.202 328.216 160.754C335.576 157.7 340.764 151.174 341.922 143.512C342.353 140.669 342.416 128.192 342.015 125.319C341.71 123.126 340.781 120.043 339.9 118.295C337.381 113.293 332.528 109.051 327.199 107.192C323.937 106.054 323.444 106.029 303.974 106.014L285.567 106L285.719 107.293ZM392.452 106.246C389.632 106.659 386.154 108.616 384.446 110.751C383.095 112.437 381.924 114.973 381.6 116.908C381.411 118.04 381.348 124.492 381.396 138.006L381.468 157.474L382.026 158.517C382.333 159.091 382.693 159.493 382.825 159.411C382.957 159.33 383.05 159.353 383.03 159.464C382.939 159.984 383.13 160.244 384.104 160.942C386.92 162.957 391.329 162.322 393.247 159.625C394.571 157.765 394.528 158.685 394.528 131.306C394.528 107.361 394.506 106.008 394.102 106.036C393.866 106.053 393.126 106.147 392.452 106.246ZM434.082 106.928C434.082 109.167 435.303 112.086 437.126 114.204C438.307 115.578 440.703 117.106 442.593 117.692C444.097 118.159 444.924 118.173 469.816 118.168C498.781 118.162 496.5 118.316 498.381 116.238C499.628 114.86 500.006 113.876 500 112.037C499.994 110.224 499.45 108.875 498.24 107.669C496.435 105.87 499.16 106.006 464.87 106.006H434.082V106.928ZM43.8719 127.064C41.6193 128.216 39.7431 130.192 38.4684 132.756L37.4487 134.806L37.4561 138.11C37.4623 141.12 37.5223 141.564 38.1297 143.117C38.4963 144.053 38.9041 145.039 39.0359 145.307C39.1677 145.575 39.6511 146.834 40.1095 148.105C40.5684 149.377 41.5424 151.95 42.2745 153.824C43.0065 155.698 44.0115 158.292 44.5076 159.588L45.4097 161.946L46.3457 161.617C50.7253 160.076 54.1736 154.929 54.1736 149.93C54.1736 147.59 53.9662 146.938 49.7684 136.06C48.942 133.918 47.7545 130.825 47.1301 129.185C46.5052 127.546 45.8844 126.21 45.75 126.216C45.6158 126.223 44.7706 126.604 43.8719 127.064ZM470.095 127.521C466.968 128.295 463.597 130.909 462.221 133.628C460.714 136.605 460.695 136.777 460.701 147.602C460.706 156.735 460.74 157.55 461.164 158.481C461.898 160.089 463.249 161.407 464.639 161.866C466.171 162.374 468.74 162.258 470.061 161.62C471.193 161.075 472.79 159.136 473.139 157.889C473.297 157.316 473.39 151.544 473.39 142.082L473.392 127.177L472.355 127.198C471.784 127.209 470.768 127.355 470.095 127.521Z" fill="white"/>
</g>
<g clip-path="url(#clip2_18_9)">
<path fill-rule="evenodd" clip-rule="evenodd" d="M23.3963 0.358698C20.8846 1.28099 18.5878 2.95133 17.0628 4.96481C16.071 6.27379 14.9972 8.84526 10.8521 19.8388C9.94387 22.248 8.61223 25.7523 7.89342 27.6259C7.17439 29.4997 6.32227 31.7446 5.99998 32.6145C5.67745 33.4845 4.3419 36.9888 3.03201 40.4019C-0.114696 48.601 -0.0849089 48.5009 0.040588 50.4218C0.203929 52.9182 1.60955 54.9453 3.81429 55.8635C5.07439 56.3882 8.2184 56.3313 9.53344 55.7597C10.7733 55.2211 11.9423 54.0568 12.6154 52.6909C13.2507 51.4015 15.5055 45.6014 20.2307 33.1013C22.4818 27.1467 23.9314 23.3297 26.1918 17.4053C27.06 15.13 28.555 11.1877 29.5139 8.64475C30.4729 6.10174 31.5245 3.33559 31.8504 2.49749C32.1766 1.65964 32.4435 0.876544 32.4435 0.75706C32.4435 0.266954 30.721 0.00681379 27.5851 0.0228749C25.4939 0.0338255 23.9429 0.158177 23.3963 0.358698ZM93.5803 1.69566C93.6952 3.51274 94.7998 6.45289 95.2608 6.16891C95.3987 6.08397 95.4435 6.12436 95.3602 6.2587C95.0095 6.82399 97.2199 9.11853 99.3695 10.4202C101.671 11.8141 101.365 11.7849 115.213 11.928C127.802 12.0579 128.056 12.0701 129.408 12.6109C131.504 13.449 133.724 15.606 134.761 17.8115L135.6 19.5955L135.682 27.0176C135.738 32.1278 135.673 34.8566 135.473 35.7783C134.831 38.7385 132.635 41.5227 129.977 42.7443C127.989 43.6584 125.932 43.7988 114.471 43.804C102.099 43.8094 101.854 43.8386 98.9292 45.6553C95.7716 47.6167 93.7861 50.796 93.5468 54.273L93.413 56.2195H111.821C126.892 56.2195 130.564 56.1555 132.08 55.8664C140.932 54.1781 148.02 46.9065 149.627 37.8627C149.773 37.0405 149.883 32.8349 149.883 28.0939C149.883 18.9756 149.731 17.5362 148.411 14.2418C147.07 10.8904 145.977 9.25384 143.291 6.57068C140.628 3.91038 139.063 2.88272 135.454 1.42262C131.981 0.0175211 131.787 0.00584038 111.8 0.00584038H93.4734L93.5803 1.69566ZM189.193 0.80354C189.193 2.05387 189.866 4.32869 190.694 5.87762C191.749 7.85068 193.887 9.80115 196.201 10.9025L198.104 11.8083L211.051 11.9299L223.996 12.0516L225.699 12.8875C227.803 13.9193 229.639 15.7055 230.593 17.6487L231.31 19.1088V27.8694V36.6299L230.613 37.9481C229.015 40.9767 226.108 43.1061 222.955 43.5605C222.043 43.6917 216.348 43.8011 210.296 43.804C198.445 43.8091 198.125 43.8383 195.541 45.1512C193.845 46.0129 191.577 48.2103 190.71 49.8317C189.813 51.5085 189.193 53.6939 189.193 55.1757V56.2195L207.688 56.2165C224.81 56.2134 226.346 56.1795 228.381 55.7576C234.485 54.4917 240.444 49.9217 243.251 44.353C245.459 39.9714 245.948 36.4424 245.771 26.2311C245.636 18.5213 245.448 17.1853 243.996 13.6334C241.511 7.54772 236.015 2.73013 229.234 0.688435C227.409 0.138709 227.351 0.137006 208.298 0.0686244L189.193 0.00024335V0.80354ZM285.719 1.29292C286.221 5.54983 288.857 9.13728 292.864 11.0135L294.548 11.8024L302.238 11.8638C306.468 11.8973 312.297 11.9533 315.19 11.9884L320.455 12.0516L322.314 12.9681C325.281 14.4306 327.255 16.96 327.87 20.0902C328.061 21.0643 328.128 23.9047 328.071 28.721C327.989 35.5607 327.959 35.9627 327.426 37.228C326.623 39.1263 325.351 40.746 323.777 41.869C321.273 43.6567 321.439 43.637 307.366 43.7964C294.985 43.9363 294.768 43.9471 293.394 44.4972C291.732 45.1616 289.439 46.7927 288.398 48.0515C286.898 49.8631 285.634 53.179 285.634 55.2972V56.2195H304.13C324.437 56.2195 324.727 56.2018 328.216 54.7538C335.576 51.7003 340.764 45.1743 341.922 37.5124C342.353 34.6687 342.416 22.1915 342.015 19.319C341.71 17.1257 340.781 14.0427 339.9 12.295C337.381 7.29293 332.528 3.05087 327.199 1.19192C323.937 0.0540234 323.444 0.0289586 303.974 0.0141143L285.567 0L285.719 1.29292ZM392.452 0.245783C389.632 0.659233 386.154 2.61625 384.446 4.75116C383.095 6.43732 381.924 8.97278 381.6 10.9081C381.411 12.0397 381.348 18.4921 381.396 32.0062L381.468 51.4743L382.026 52.5169C382.333 53.0906 382.693 53.493 382.825 53.4115C382.957 53.33 383.05 53.3533 383.03 53.4638C382.939 53.9841 383.13 54.2441 384.104 54.9419C386.92 56.9571 391.329 56.3222 393.247 53.6251C394.571 51.765 394.528 52.6849 394.528 25.3057C394.528 1.36129 394.506 0.00754382 394.102 0.036259C393.866 0.0528069 393.126 0.147226 392.452 0.245783ZM434.082 0.928135C434.082 3.16719 435.303 6.08591 437.126 8.2038C438.307 9.5775 440.703 11.1065 442.593 11.6922C444.097 12.1587 444.924 12.1731 469.816 12.168C498.781 12.1619 496.5 12.3162 498.381 10.2377C499.628 8.85985 500.006 7.87648 500 6.03652C499.994 4.22431 499.45 2.87541 498.24 1.66938C496.435 -0.129949 499.16 0.00584038 464.87 0.00584038H434.082V0.928135ZM43.8719 21.0638C41.6193 22.2164 39.7431 24.1925 38.4684 26.7559L37.4487 28.806L37.4561 32.1096C37.4623 35.12 37.5223 35.5642 38.1297 37.1166C38.4963 38.0534 38.9041 39.0391 39.0359 39.3068C39.1677 39.5745 39.6511 40.8338 40.1095 42.1053C40.5684 43.3769 41.5424 45.9502 42.2745 47.824C43.0065 49.6978 44.0115 52.2915 44.5076 53.5882L45.4097 55.9455L46.3457 55.6166C50.7253 54.0765 54.1736 48.9286 54.1736 43.9305C54.1736 41.5904 53.9662 40.9378 49.7684 30.0596C48.942 27.918 47.7545 24.8246 47.1301 23.1852C46.5052 21.5459 45.8844 20.2097 45.75 20.216C45.6158 20.2226 44.7706 20.6041 43.8719 21.0638ZM470.095 21.5208C466.968 22.2953 463.597 24.9091 462.221 27.6283C460.714 30.6052 460.695 30.7773 460.701 41.6021C460.706 50.7352 460.74 51.5496 461.164 52.481C461.898 54.089 463.249 55.4068 464.639 55.8664C466.171 56.3741 468.74 56.2576 470.061 55.6203C471.193 55.0749 472.79 53.1358 473.139 51.8887C473.297 51.3165 473.39 45.5443 473.39 36.0823L473.392 21.1772L472.355 21.1979C471.784 21.2094 470.768 21.3546 470.095 21.5208Z" fill="white"/>
</g>
</g>
<defs>
<clipPath id="clip0_18_9">
<rect width="500" height="56.2249" fill="white" transform="translate(0 212)"/>
</clipPath>
<clipPath id="clip1_18_9">
<rect width="500" height="56.2249" fill="white" transform="translate(0 106)"/>
</clipPath>
<clipPath id="clip2_18_9">
<rect width="500" height="56.2249" fill="white"/>
</clipPath>
</defs>
</svg>
