<svg width="231" height="26" viewBox="0 0 231 26" fill="none" xmlns="http://www.w3.org/2000/svg">
<path fill-rule="evenodd" clip-rule="evenodd" d="M10.8091 0.165872C9.64867 0.592367 8.58755 1.36478 7.883 2.29587C7.4248 2.90118 6.9287 4.0903 5.01368 9.17403C4.59407 10.2881 3.97885 11.9086 3.64676 12.775C3.31457 13.6415 2.92089 14.6796 2.77199 15.0819C2.62298 15.4842 2.00596 17.1047 1.40079 18.683C-0.0529896 22.4745 -0.0392279 22.4282 0.0187517 23.3165C0.0942154 24.4709 0.74361 25.4083 1.7622 25.8329C2.34437 26.0755 3.7969 26.0492 4.40445 25.7849C4.97725 25.5358 5.51734 24.9974 5.82833 24.3658C6.12184 23.7695 7.16356 21.0874 9.34659 15.307C10.3866 12.5534 11.0563 10.7883 12.1006 8.04872C12.5017 6.99654 13.1924 5.17353 13.6354 3.99758C14.0785 2.82162 14.5643 1.54247 14.7149 1.15491C14.8656 0.767466 14.9889 0.405339 14.9889 0.350086C14.9889 0.123447 14.1931 0.00315089 12.7443 0.010578C11.7782 0.0156419 11.0616 0.0731456 10.8091 0.165872ZM43.2341 0.784121C43.2872 1.62439 43.7975 2.984 44.0105 2.85268C44.0742 2.8134 44.0949 2.83208 44.0564 2.8942C43.8944 3.15561 44.9156 4.21667 45.9087 4.81861C46.972 5.46319 46.8306 5.44968 53.2284 5.51585C59.0446 5.57594 59.1618 5.58157 59.7864 5.83162C60.7549 6.21918 61.7807 7.21666 62.2596 8.23653L62.6472 9.0615L62.685 12.4937C62.7111 14.8568 62.6811 16.1187 62.5887 16.5449C62.2921 17.9138 61.2773 19.2013 60.0493 19.7662C59.1307 20.1889 58.1807 20.2538 52.8854 20.2562C47.1696 20.2587 47.0565 20.2722 45.7053 21.1123C44.2465 22.0193 43.3292 23.4895 43.2186 25.0974L43.1568 25.9975H51.6612C58.624 25.9975 60.3206 25.9679 61.0208 25.8342C65.1108 25.0535 68.3851 21.6909 69.1275 17.5088C69.1951 17.1286 69.2461 15.1838 69.2461 12.9914C69.2461 8.77488 69.1755 8.10926 68.566 6.5858C67.9462 5.03602 67.4414 4.27924 66.2005 3.03847C64.97 1.80827 64.2473 1.33305 62.5799 0.65786C60.9754 0.00810228 60.8855 0.00270076 51.6517 0.00270076H43.1847L43.2341 0.784121ZM87.407 0.37158C87.407 0.949767 87.718 2.00171 88.1007 2.71798C88.5881 3.63038 89.5757 4.53233 90.645 5.04164L91.5242 5.46049L97.5054 5.51675L103.486 5.57302L104.273 5.95957C105.245 6.4367 106.093 7.26268 106.534 8.16125L106.865 8.83644V12.8876V16.9387L106.543 17.5483C105.805 18.9488 104.462 19.9335 103.005 20.1436C102.584 20.2043 99.9526 20.2549 97.1566 20.2562C91.6815 20.2586 91.5337 20.2721 90.3398 20.8792C89.5563 21.2777 88.5085 22.2938 88.1079 23.0436C87.6936 23.819 87.407 24.8296 87.407 25.5148V25.9975L95.9517 25.9961C103.862 25.9947 104.572 25.979 105.512 25.7839C108.332 25.1985 111.085 23.0852 112.382 20.5101C113.402 18.4839 113.628 16.852 113.546 12.13C113.484 8.56479 113.397 7.94699 112.726 6.30447C111.578 3.49028 109.039 1.26249 105.906 0.318352C105.063 0.064143 105.036 0.0633553 96.2337 0.0317339L87.407 0.000112532V0.37158ZM132.002 0.597881C132.234 2.5664 133.452 4.22534 135.303 5.09296L136.081 5.45779L139.634 5.48614C141.588 5.50167 144.281 5.52756 145.618 5.54376L148.05 5.57302L148.909 5.99681C150.28 6.67313 151.192 7.84278 151.476 9.29028C151.564 9.74074 151.595 11.0542 151.569 13.2814C151.531 16.4443 151.517 16.6302 151.271 17.2153C150.9 18.0931 150.312 18.8421 149.585 19.3614C148.428 20.1881 148.505 20.179 142.003 20.2527C136.283 20.3174 136.183 20.3224 135.548 20.5768C134.78 20.884 133.721 21.6383 133.24 22.2204C132.547 23.0581 131.963 24.5915 131.963 25.571V25.9975H140.508C149.89 25.9975 150.024 25.9893 151.636 25.3197C155.036 23.9077 157.433 20.8899 157.968 17.3468C158.167 16.0318 158.196 10.262 158.011 8.93367C157.87 7.91942 157.441 6.49375 157.034 5.68555C155.87 3.37246 153.628 1.41081 151.166 0.55118C149.659 0.024982 149.431 0.0133913 140.436 0.00652684L131.932 0L132.002 0.597881ZM181.313 0.113657C180.01 0.304848 178.403 1.20983 177.614 2.19707C176.99 2.9768 176.449 4.14927 176.299 5.04423C176.212 5.5675 176.183 8.55128 176.205 14.8006L176.238 23.8032L176.496 24.2853C176.638 24.5506 176.804 24.7367 176.865 24.699C176.926 24.6613 176.969 24.6721 176.96 24.7232C176.918 24.9638 177.006 25.084 177.456 25.4067C178.757 26.3386 180.794 26.045 181.68 24.7978C182.292 23.9376 182.272 24.363 182.272 11.7021C182.272 0.629502 182.262 0.00348848 182.075 0.0167672C181.966 0.0244194 181.624 0.0680817 181.313 0.113657ZM200.546 0.429196C200.546 1.4646 201.11 2.8143 201.952 3.79367C202.498 4.42891 203.605 5.13595 204.478 5.40681C205.173 5.62253 205.555 5.62917 217.055 5.62681C230.437 5.624 229.383 5.69534 230.252 4.73421C230.828 4.09705 231.003 3.64231 231 2.79146C230.997 1.95344 230.746 1.32967 230.187 0.771967C229.353 -0.0600919 230.612 0.00270076 214.77 0.00270076H200.546V0.429196ZM20.2688 9.74052C19.2281 10.2735 18.3613 11.1873 17.7724 12.3727L17.3013 13.3207L17.3047 14.8484C17.3076 16.2405 17.3353 16.4459 17.6159 17.1638C17.7853 17.597 17.9737 18.0528 18.0346 18.1766C18.0955 18.3004 18.3188 18.8827 18.5306 19.4707C18.7426 20.0587 19.1926 21.2487 19.5308 22.1152C19.869 22.9817 20.3333 24.1811 20.5625 24.7807L20.9793 25.8708L21.4117 25.7187C23.4351 25.0065 25.0282 22.626 25.0282 20.3147C25.0282 19.2326 24.9324 18.9308 22.993 13.9004C22.6112 12.9101 22.0626 11.4796 21.7741 10.7215C21.4854 9.96344 21.1986 9.34553 21.1365 9.34846C21.0745 9.3515 20.684 9.52794 20.2688 9.74052ZM217.184 9.95185C215.739 10.31 214.182 11.5187 213.546 12.7761C212.85 14.1527 212.841 14.2323 212.844 19.238C212.846 23.4614 212.862 23.838 213.058 24.2687C213.397 25.0123 214.021 25.6217 214.663 25.8342C215.371 26.069 216.558 26.0151 217.168 25.7204C217.691 25.4682 218.429 24.5715 218.59 23.9948C218.663 23.7302 218.706 21.061 218.706 16.6855L218.707 9.79296L218.228 9.80252C217.964 9.80781 217.495 9.87499 217.184 9.95185Z" fill="white"/>
</svg>
