<svg width="250" height="47" viewBox="0 0 250 47" fill="none" xmlns="http://www.w3.org/2000/svg">
<path fill-rule="evenodd" clip-rule="evenodd" d="M10.8091 0.165872C9.64867 0.592367 8.58755 1.36478 7.883 2.29587C7.4248 2.90118 6.9287 4.0903 5.01368 9.17403C4.59407 10.2881 3.97885 11.9086 3.64676 12.775C3.31457 13.6415 2.92089 14.6796 2.77199 15.0819C2.62298 15.4842 2.00596 17.1047 1.40079 18.683C-0.0529896 22.4745 -0.0392279 22.4282 0.0187517 23.3165C0.0942154 24.4709 0.74361 25.4083 1.7622 25.8329C2.34437 26.0755 3.7969 26.0492 4.40445 25.7849C4.97725 25.5358 5.51734 24.9974 5.82833 24.3658C6.12184 23.7695 7.16356 21.0874 9.34659 15.307C10.3866 12.5534 11.0563 10.7883 12.1006 8.04872C12.5017 6.99654 13.1924 5.17353 13.6354 3.99758C14.0785 2.82162 14.5643 1.54247 14.7149 1.15491C14.8656 0.767466 14.9889 0.405339 14.9889 0.350086C14.9889 0.123447 14.1931 0.00315089 12.7443 0.010578C11.7782 0.0156419 11.0616 0.0731456 10.8091 0.165872ZM43.2341 0.784121C43.2872 1.62439 43.7975 2.984 44.0105 2.85268C44.0742 2.8134 44.0949 2.83208 44.0564 2.8942C43.8944 3.15561 44.9156 4.21667 45.9087 4.81861C46.972 5.46319 46.8306 5.44968 53.2284 5.51585C59.0446 5.57594 59.1618 5.58157 59.7864 5.83162C60.7549 6.21918 61.7807 7.21666 62.2596 8.23653L62.6472 9.0615L62.685 12.4937C62.7111 14.8568 62.6811 16.1187 62.5887 16.5449C62.2921 17.9138 61.2773 19.2013 60.0493 19.7662C59.1307 20.1889 58.1807 20.2538 52.8854 20.2562C47.1696 20.2587 47.0565 20.2722 45.7053 21.1123C44.2465 22.0193 43.3292 23.4895 43.2186 25.0974L43.1568 25.9975H51.6612C58.624 25.9975 60.3206 25.9679 61.0208 25.8342C65.1108 25.0535 68.3851 21.6909 69.1275 17.5088C69.1951 17.1286 69.2461 15.1838 69.2461 12.9914C69.2461 8.77488 69.1755 8.10926 68.566 6.5858C67.9462 5.03602 67.4414 4.27924 66.2005 3.03847C64.97 1.80827 64.2473 1.33305 62.5799 0.65786C60.9754 0.00810228 60.8855 0.00270076 51.6517 0.00270076H43.1847L43.2341 0.784121ZM87.407 0.37158C87.407 0.949767 87.718 2.00171 88.1007 2.71798C88.5881 3.63038 89.5757 4.53233 90.645 5.04164L91.5242 5.46049L97.5054 5.51675L103.486 5.57302L104.273 5.95957C105.245 6.4367 106.093 7.26268 106.534 8.16125L106.865 8.83644V12.8876V16.9387L106.543 17.5483C105.805 18.9488 104.462 19.9335 103.005 20.1436C102.584 20.2043 99.9526 20.2549 97.1566 20.2562C91.6815 20.2586 91.5337 20.2721 90.3398 20.8792C89.5563 21.2777 88.5085 22.2938 88.1079 23.0436C87.6936 23.819 87.407 24.8296 87.407 25.5148V25.9975L95.9517 25.9961C103.862 25.9947 104.572 25.979 105.512 25.7839C108.332 25.1985 111.085 23.0852 112.382 20.5101C113.402 18.4839 113.628 16.852 113.546 12.13C113.484 8.56479 113.397 7.94699 112.726 6.30447C111.578 3.49028 109.039 1.26249 105.906 0.318352C105.063 0.064143 105.036 0.0633553 96.2337 0.0317339L87.407 0.000112532V0.37158ZM132.002 0.597881C132.234 2.5664 133.452 4.22534 135.303 5.09296L136.081 5.45779L139.634 5.48614C141.588 5.50167 144.281 5.52756 145.618 5.54376L148.05 5.57302L148.909 5.99681C150.28 6.67313 151.192 7.84278 151.476 9.29028C151.564 9.74074 151.595 11.0542 151.569 13.2814C151.531 16.4443 151.517 16.6302 151.271 17.2153C150.9 18.0931 150.312 18.8421 149.585 19.3614C148.428 20.1881 148.505 20.179 142.003 20.2527C136.283 20.3174 136.183 20.3224 135.548 20.5768C134.78 20.884 133.721 21.6383 133.24 22.2204C132.547 23.0581 131.963 24.5915 131.963 25.571V25.9975H140.508C149.89 25.9975 150.024 25.9893 151.636 25.3197C155.036 23.9077 157.433 20.8899 157.968 17.3468C158.167 16.0318 158.196 10.262 158.011 8.93367C157.87 7.91942 157.441 6.49375 157.034 5.68555C155.87 3.37246 153.628 1.41081 151.166 0.55118C149.659 0.024982 149.431 0.0133913 140.436 0.00652684L131.932 0L132.002 0.597881ZM181.313 0.113657C180.01 0.304848 178.403 1.20983 177.614 2.19707C176.99 2.9768 176.449 4.14927 176.299 5.04423C176.212 5.5675 176.183 8.55128 176.205 14.8006L176.238 23.8032L176.496 24.2853C176.638 24.5506 176.804 24.7367 176.865 24.699C176.926 24.6613 176.969 24.6721 176.96 24.7232C176.918 24.9638 177.006 25.084 177.456 25.4067C178.757 26.3386 180.794 26.045 181.68 24.7978C182.292 23.9376 182.272 24.363 182.272 11.7021C182.272 0.629502 182.262 0.00348848 182.075 0.0167672C181.966 0.0244194 181.624 0.0680817 181.313 0.113657ZM200.546 0.429196C200.546 1.4646 201.11 2.8143 201.952 3.79367C202.498 4.42891 203.605 5.13595 204.478 5.40681C205.173 5.62253 205.555 5.62917 217.055 5.62681C230.437 5.624 229.383 5.69534 230.252 4.73421C230.828 4.09705 231.003 3.64231 231 2.79146C230.997 1.95344 230.746 1.32967 230.187 0.771967C229.353 -0.0600919 230.612 0.00270076 214.77 0.00270076H200.546V0.429196ZM20.2688 9.74052C19.2281 10.2735 18.3613 11.1873 17.7724 12.3727L17.3013 13.3207L17.3047 14.8484C17.3076 16.2405 17.3353 16.4459 17.6159 17.1638C17.7853 17.597 17.9737 18.0528 18.0346 18.1766C18.0955 18.3004 18.3188 18.8827 18.5306 19.4707C18.7426 20.0587 19.1926 21.2487 19.5308 22.1152C19.869 22.9817 20.3333 24.1811 20.5625 24.7807L20.9793 25.8708L21.4117 25.7187C23.4351 25.0065 25.0282 22.626 25.0282 20.3147C25.0282 19.2326 24.9324 18.9308 22.993 13.9004C22.6112 12.9101 22.0626 11.4796 21.7741 10.7215C21.4854 9.96344 21.1986 9.34553 21.1365 9.34846C21.0745 9.3515 20.684 9.52794 20.2688 9.74052ZM217.184 9.95185C215.739 10.31 214.182 11.5187 213.546 12.7761C212.85 14.1527 212.841 14.2323 212.844 19.238C212.846 23.4614 212.862 23.838 213.058 24.2687C213.397 25.0123 214.021 25.6217 214.663 25.8342C215.371 26.069 216.558 26.0151 217.168 25.7204C217.691 25.4682 218.429 24.5715 218.59 23.9948C218.663 23.7302 218.706 21.061 218.706 16.6855L218.707 9.79296L218.228 9.80252C217.964 9.80781 217.495 9.87499 217.184 9.95185Z" fill="white"/>
<path d="M0.638 37.1183C0.682 36.4363 0.942333 35.9046 1.419 35.5233C1.903 35.1419 2.519 34.9513 3.267 34.9513C3.78033 34.9513 4.224 35.0429 4.598 35.2263C4.972 35.4096 5.25433 35.6589 5.445 35.9743C5.63567 36.2896 5.731 36.6453 5.731 37.0413C5.731 37.4959 5.61 37.8846 5.368 38.2073C5.126 38.5299 4.83633 38.7463 4.499 38.8563V38.9003C4.93167 39.0323 5.269 39.2743 5.511 39.6263C5.753 39.9709 5.874 40.4146 5.874 40.9573C5.874 41.3899 5.775 41.7749 5.577 42.1123C5.379 42.4496 5.08567 42.7173 4.697 42.9153C4.30833 43.1059 3.84267 43.2013 3.3 43.2013C2.508 43.2013 1.85533 42.9996 1.342 42.5963C0.836 42.1856 0.564667 41.5989 0.528 40.8363H1.738C1.76733 41.2249 1.91767 41.5439 2.189 41.7933C2.46033 42.0353 2.827 42.1563 3.289 42.1563C3.73633 42.1563 4.081 42.0353 4.323 41.7933C4.565 41.5439 4.686 41.2249 4.686 40.8363C4.686 40.3229 4.521 39.9599 4.191 39.7473C3.86833 39.5273 3.36967 39.4173 2.695 39.4173H2.409V38.3833H2.706C3.3 38.3759 3.751 38.2769 4.059 38.0863C4.37433 37.8956 4.532 37.5949 4.532 37.1843C4.532 36.8323 4.41833 36.5536 4.191 36.3483C3.96367 36.1356 3.641 36.0293 3.223 36.0293C2.81233 36.0293 2.49333 36.1356 2.266 36.3483C2.03867 36.5536 1.903 36.8103 1.859 37.1183H0.638ZM9.85325 35.5123C10.6673 35.5123 11.3786 35.6699 11.9873 35.9853C12.6033 36.2933 13.0763 36.7406 13.4062 37.3273C13.7436 37.9066 13.9123 38.5849 13.9123 39.3623C13.9123 40.1396 13.7436 40.8143 13.4062 41.3863C13.0763 41.9583 12.6033 42.3983 11.9873 42.7063C11.3786 43.0069 10.6673 43.1573 9.85325 43.1573H7.35625V35.5123H9.85325ZM9.85325 42.1343C10.7479 42.1343 11.4336 41.8923 11.9103 41.4083C12.3869 40.9243 12.6253 40.2423 12.6253 39.3623C12.6253 38.4749 12.3869 37.7819 11.9103 37.2833C11.4336 36.7846 10.7479 36.5353 9.85325 36.5353H8.61025V42.1343H9.85325ZM23.3585 37.7893C23.3585 38.1779 23.2668 38.5446 23.0835 38.8893C22.9002 39.2339 22.6068 39.5163 22.2035 39.7363C21.8002 39.9489 21.2832 40.0553 20.6525 40.0553H19.2665V43.1573H18.0125V35.5123H20.6525C21.2392 35.5123 21.7342 35.6149 22.1375 35.8203C22.5482 36.0183 22.8525 36.2896 23.0505 36.6343C23.2558 36.9789 23.3585 37.3639 23.3585 37.7893ZM20.6525 39.0323C21.1292 39.0323 21.4848 38.9259 21.7195 38.7133C21.9542 38.4933 22.0715 38.1853 22.0715 37.7893C22.0715 36.9533 21.5985 36.5353 20.6525 36.5353H19.2665V39.0323H20.6525ZM25.8085 37.9763C25.9918 37.6683 26.2338 37.4299 26.5345 37.2613C26.8425 37.0853 27.2055 36.9973 27.6235 36.9973V38.2953H27.3045C26.8132 38.2953 26.4392 38.4199 26.1825 38.6693C25.9332 38.9186 25.8085 39.3513 25.8085 39.9673V43.1573H24.5545V37.0963H25.8085V37.9763ZM29.4142 36.2933C29.1868 36.2933 28.9962 36.2163 28.8422 36.0623C28.6882 35.9083 28.6112 35.7176 28.6112 35.4903C28.6112 35.2629 28.6882 35.0723 28.8422 34.9183C28.9962 34.7643 29.1868 34.6873 29.4142 34.6873C29.6342 34.6873 29.8212 34.7643 29.9752 34.9183C30.1292 35.0723 30.2062 35.2629 30.2062 35.4903C30.2062 35.7176 30.1292 35.9083 29.9752 36.0623C29.8212 36.2163 29.6342 36.2933 29.4142 36.2933ZM30.0302 37.0963V43.1573H28.7762V37.0963H30.0302ZM34.7346 36.9973C35.2112 36.9973 35.6366 37.0963 36.0106 37.2943C36.3919 37.4923 36.6889 37.7856 36.9016 38.1743C37.1142 38.5629 37.2206 39.0323 37.2206 39.5823V43.1573H35.9776V39.7693C35.9776 39.2266 35.8419 38.8123 35.5706 38.5263C35.2992 38.2329 34.9289 38.0863 34.4596 38.0863C33.9902 38.0863 33.6162 38.2329 33.3376 38.5263C33.0662 38.8123 32.9306 39.2266 32.9306 39.7693V43.1573H31.6766V37.0963H32.9306V37.7893C33.1359 37.5399 33.3962 37.3456 33.7116 37.2063C34.0342 37.0669 34.3752 36.9973 34.7346 36.9973ZM40.2831 38.1193V41.4743C40.2831 41.7016 40.3345 41.8666 40.4371 41.9693C40.5471 42.0646 40.7305 42.1123 40.9871 42.1123H41.7571V43.1573H40.7671C40.2025 43.1573 39.7698 43.0253 39.4691 42.7613C39.1685 42.4973 39.0181 42.0683 39.0181 41.4743V38.1193H38.3031V37.0963H39.0181V35.5893H40.2831V37.0963H41.7571V38.1193H40.2831ZM43.5509 36.2933C43.3236 36.2933 43.1329 36.2163 42.9789 36.0623C42.8249 35.9083 42.7479 35.7176 42.7479 35.4903C42.7479 35.2629 42.8249 35.0723 42.9789 34.9183C43.1329 34.7643 43.3236 34.6873 43.5509 34.6873C43.7709 34.6873 43.9579 34.7643 44.1119 34.9183C44.2659 35.0723 44.3429 35.2629 44.3429 35.4903C44.3429 35.7176 44.2659 35.9083 44.1119 36.0623C43.9579 36.2163 43.7709 36.2933 43.5509 36.2933ZM44.1669 37.0963V43.1573H42.9129V37.0963H44.1669ZM48.8713 36.9973C49.3479 36.9973 49.7733 37.0963 50.1473 37.2943C50.5286 37.4923 50.8256 37.7856 51.0383 38.1743C51.2509 38.5629 51.3573 39.0323 51.3573 39.5823V43.1573H50.1143V39.7693C50.1143 39.2266 49.9786 38.8123 49.7073 38.5263C49.4359 38.2329 49.0656 38.0863 48.5963 38.0863C48.1269 38.0863 47.7529 38.2329 47.4743 38.5263C47.2029 38.8123 47.0673 39.2266 47.0673 39.7693V43.1573H45.8133V37.0963H47.0673V37.7893C47.2726 37.5399 47.5329 37.3456 47.8483 37.2063C48.1709 37.0669 48.5119 36.9973 48.8713 36.9973ZM55.3988 36.9973C55.8682 36.9973 56.2825 37.0926 56.6418 37.2833C57.0085 37.4666 57.2945 37.6976 57.4998 37.9763V37.0963H58.7648V43.2563C58.7648 43.8136 58.6475 44.3086 58.4128 44.7413C58.1782 45.1813 57.8372 45.5259 57.3898 45.7753C56.9498 46.0246 56.4218 46.1493 55.8058 46.1493C54.9845 46.1493 54.3025 45.9549 53.7598 45.5663C53.2172 45.1849 52.9092 44.6643 52.8358 44.0043H54.0788C54.1742 44.3196 54.3758 44.5726 54.6838 44.7633C54.9992 44.9613 55.3732 45.0603 55.8058 45.0603C56.3118 45.0603 56.7188 44.9063 57.0268 44.5983C57.3422 44.2903 57.4998 43.8429 57.4998 43.2563V42.2443C57.2872 42.5303 56.9975 42.7723 56.6308 42.9703C56.2715 43.1609 55.8608 43.2563 55.3988 43.2563C54.8708 43.2563 54.3868 43.1243 53.9468 42.8603C53.5142 42.5889 53.1695 42.2149 52.9128 41.7383C52.6635 41.2543 52.5388 40.7079 52.5388 40.0993C52.5388 39.4906 52.6635 38.9516 52.9128 38.4823C53.1695 38.0129 53.5142 37.6499 53.9468 37.3933C54.3868 37.1293 54.8708 36.9973 55.3988 36.9973ZM57.4998 40.1213C57.4998 39.7033 57.4118 39.3403 57.2358 39.0323C57.0672 38.7243 56.8435 38.4896 56.5648 38.3283C56.2862 38.1669 55.9855 38.0863 55.6628 38.0863C55.3402 38.0863 55.0395 38.1669 54.7608 38.3283C54.4822 38.4823 54.2548 38.7133 54.0788 39.0213C53.9102 39.3219 53.8258 39.6813 53.8258 40.0993C53.8258 40.5173 53.9102 40.8839 54.0788 41.1993C54.2548 41.5146 54.4822 41.7566 54.7608 41.9253C55.0468 42.0866 55.3475 42.1673 55.6628 42.1673C55.9855 42.1673 56.2862 42.0866 56.5648 41.9253C56.8435 41.7639 57.0672 41.5293 57.2358 41.2213C57.4118 40.9059 57.4998 40.5393 57.4998 40.1213ZM62.8513 39.3183C62.8513 38.5703 63.0237 37.8993 63.3683 37.3053C63.7203 36.7113 64.1933 36.2493 64.7873 35.9193C65.3887 35.5819 66.045 35.4133 66.7563 35.4133C67.5703 35.4133 68.2927 35.6149 68.9233 36.0183C69.5613 36.4143 70.0233 36.9789 70.3093 37.7123H68.8023C68.6043 37.3089 68.3293 37.0083 67.9773 36.8103C67.6253 36.6123 67.2183 36.5133 66.7563 36.5133C66.2503 36.5133 65.7993 36.6269 65.4033 36.8543C65.0073 37.0816 64.6957 37.4079 64.4683 37.8333C64.2483 38.2586 64.1383 38.7536 64.1383 39.3183C64.1383 39.8829 64.2483 40.3779 64.4683 40.8033C64.6957 41.2286 65.0073 41.5586 65.4033 41.7933C65.7993 42.0206 66.2503 42.1343 66.7563 42.1343C67.2183 42.1343 67.6253 42.0353 67.9773 41.8373C68.3293 41.6393 68.6043 41.3386 68.8023 40.9353H70.3093C70.0233 41.6686 69.5613 42.2333 68.9233 42.6293C68.2927 43.0253 67.5703 43.2233 66.7563 43.2233C66.0377 43.2233 65.3813 43.0583 64.7873 42.7283C64.1933 42.3909 63.7203 41.9253 63.3683 41.3313C63.0237 40.7373 62.8513 40.0663 62.8513 39.3183ZM73.0311 35.0173V43.1573H71.7771V35.0173H73.0311ZM77.3065 43.2563C76.7345 43.2563 76.2175 43.1279 75.7555 42.8713C75.2935 42.6073 74.9305 42.2406 74.6665 41.7713C74.4025 41.2946 74.2705 40.7446 74.2705 40.1213C74.2705 39.5053 74.4062 38.9589 74.6775 38.4823C74.9489 38.0056 75.3192 37.6389 75.7885 37.3823C76.2579 37.1256 76.7822 36.9973 77.3615 36.9973C77.9409 36.9973 78.4652 37.1256 78.9345 37.3823C79.4039 37.6389 79.7742 38.0056 80.0455 38.4823C80.3169 38.9589 80.4525 39.5053 80.4525 40.1213C80.4525 40.7373 80.3132 41.2836 80.0345 41.7603C79.7559 42.2369 79.3745 42.6073 78.8905 42.8713C78.4139 43.1279 77.8859 43.2563 77.3065 43.2563ZM77.3065 42.1673C77.6292 42.1673 77.9299 42.0903 78.2085 41.9363C78.4945 41.7823 78.7255 41.5513 78.9015 41.2433C79.0775 40.9353 79.1655 40.5613 79.1655 40.1213C79.1655 39.6813 79.0812 39.3109 78.9125 39.0103C78.7439 38.7023 78.5202 38.4713 78.2415 38.3173C77.9629 38.1633 77.6622 38.0863 77.3395 38.0863C77.0169 38.0863 76.7162 38.1633 76.4375 38.3173C76.1662 38.4713 75.9499 38.7023 75.7885 39.0103C75.6272 39.3109 75.5465 39.6813 75.5465 40.1213C75.5465 40.7739 75.7115 41.2799 76.0415 41.6393C76.3789 41.9913 76.8005 42.1673 77.3065 42.1673ZM87.1812 37.0963V43.1573H85.9272V42.4423C85.7292 42.6916 85.4689 42.8896 85.1462 43.0363C84.8309 43.1756 84.4935 43.2453 84.1342 43.2453C83.6575 43.2453 83.2285 43.1463 82.8472 42.9483C82.4732 42.7503 82.1762 42.4569 81.9562 42.0683C81.7435 41.6796 81.6372 41.2103 81.6372 40.6603V37.0963H82.8802V40.4733C82.8802 41.0159 83.0159 41.4339 83.2872 41.7273C83.5585 42.0133 83.9289 42.1563 84.3982 42.1563C84.8675 42.1563 85.2379 42.0133 85.5092 41.7273C85.7879 41.4339 85.9272 41.0159 85.9272 40.4733V37.0963H87.1812ZM88.4177 40.0993C88.4177 39.4906 88.5424 38.9516 88.7917 38.4823C89.0484 38.0129 89.3931 37.6499 89.8257 37.3933C90.2657 37.1293 90.7534 36.9973 91.2887 36.9973C91.6847 36.9973 92.0734 37.0853 92.4547 37.2613C92.8434 37.4299 93.1514 37.6573 93.3787 37.9433V35.0173H94.6437V43.1573H93.3787V42.2443C93.1734 42.5376 92.8874 42.7796 92.5207 42.9703C92.1614 43.1609 91.7471 43.2563 91.2777 43.2563C90.7497 43.2563 90.2657 43.1243 89.8257 42.8603C89.3931 42.5889 89.0484 42.2149 88.7917 41.7383C88.5424 41.2543 88.4177 40.7079 88.4177 40.0993ZM93.3787 40.1213C93.3787 39.7033 93.2907 39.3403 93.1147 39.0323C92.9461 38.7243 92.7224 38.4896 92.4437 38.3283C92.1651 38.1669 91.8644 38.0863 91.5417 38.0863C91.2191 38.0863 90.9184 38.1669 90.6397 38.3283C90.3611 38.4823 90.1337 38.7133 89.9577 39.0213C89.7891 39.3219 89.7047 39.6813 89.7047 40.0993C89.7047 40.5173 89.7891 40.8839 89.9577 41.1993C90.1337 41.5146 90.3611 41.7566 90.6397 41.9253C90.9257 42.0866 91.2264 42.1673 91.5417 42.1673C91.8644 42.1673 92.1651 42.0866 92.4437 41.9253C92.7224 41.7639 92.9461 41.5293 93.1147 41.2213C93.2907 40.9059 93.3787 40.5393 93.3787 40.1213ZM107.2 35.5123V43.1573H105.946V37.9213L103.614 43.1573H102.745L100.402 37.9213V43.1573H99.1482V35.5123H100.501L103.185 41.5073L105.858 35.5123H107.2ZM108.43 40.0993C108.43 39.4906 108.555 38.9516 108.804 38.4823C109.061 38.0129 109.406 37.6499 109.838 37.3933C110.278 37.1293 110.762 36.9973 111.29 36.9973C111.767 36.9973 112.181 37.0926 112.533 37.2833C112.893 37.4666 113.179 37.6976 113.391 37.9763V37.0963H114.656V43.1573H113.391V42.2553C113.179 42.5413 112.889 42.7796 112.522 42.9703C112.156 43.1609 111.738 43.2563 111.268 43.2563C110.748 43.2563 110.271 43.1243 109.838 42.8603C109.406 42.5889 109.061 42.2149 108.804 41.7383C108.555 41.2543 108.43 40.7079 108.43 40.0993ZM113.391 40.1213C113.391 39.7033 113.303 39.3403 113.127 39.0323C112.959 38.7243 112.735 38.4896 112.456 38.3283C112.178 38.1669 111.877 38.0863 111.554 38.0863C111.232 38.0863 110.931 38.1669 110.652 38.3283C110.374 38.4823 110.146 38.7133 109.97 39.0213C109.802 39.3219 109.717 39.6813 109.717 40.0993C109.717 40.5173 109.802 40.8839 109.97 41.1993C110.146 41.5146 110.374 41.7566 110.652 41.9253C110.938 42.0866 111.239 42.1673 111.554 42.1673C111.877 42.1673 112.178 42.0866 112.456 41.9253C112.735 41.7639 112.959 41.5293 113.127 41.2213C113.303 40.9059 113.391 40.5393 113.391 40.1213ZM119.362 36.9973C119.838 36.9973 120.264 37.0963 120.638 37.2943C121.019 37.4923 121.316 37.7856 121.529 38.1743C121.741 38.5629 121.848 39.0323 121.848 39.5823V43.1573H120.605V39.7693C120.605 39.2266 120.469 38.8123 120.198 38.5263C119.926 38.2329 119.556 38.0863 119.087 38.0863C118.617 38.0863 118.243 38.2329 117.965 38.5263C117.693 38.8123 117.558 39.2266 117.558 39.7693V43.1573H116.304V37.0963H117.558V37.7893C117.763 37.5399 118.023 37.3456 118.339 37.2063C118.661 37.0669 119.002 36.9973 119.362 36.9973ZM128.936 37.0963V43.1573H127.682V42.4423C127.484 42.6916 127.224 42.8896 126.901 43.0363C126.586 43.1756 126.248 43.2453 125.889 43.2453C125.412 43.2453 124.983 43.1463 124.602 42.9483C124.228 42.7503 123.931 42.4569 123.711 42.0683C123.498 41.6796 123.392 41.2103 123.392 40.6603V37.0963H124.635V40.4733C124.635 41.0159 124.771 41.4339 125.042 41.7273C125.313 42.0133 125.684 42.1563 126.153 42.1563C126.622 42.1563 126.993 42.0133 127.264 41.7273C127.543 41.4339 127.682 41.0159 127.682 40.4733V37.0963H128.936ZM133.132 38.1193H132.01V43.1573H130.745V38.1193H130.03V37.0963H130.745V36.6673C130.745 35.9706 130.928 35.4646 131.295 35.1493C131.669 34.8266 132.252 34.6653 133.044 34.6653V35.7103C132.662 35.7103 132.395 35.7836 132.241 35.9303C132.087 36.0696 132.01 36.3153 132.01 36.6673V37.0963H133.132V38.1193ZM133.825 40.0993C133.825 39.4906 133.95 38.9516 134.199 38.4823C134.456 38.0129 134.8 37.6499 135.233 37.3933C135.673 37.1293 136.157 36.9973 136.685 36.9973C137.162 36.9973 137.576 37.0926 137.928 37.2833C138.287 37.4666 138.573 37.6976 138.786 37.9763V37.0963H140.051V43.1573H138.786V42.2553C138.573 42.5413 138.284 42.7796 137.917 42.9703C137.55 43.1609 137.132 43.2563 136.663 43.2563C136.142 43.2563 135.666 43.1243 135.233 42.8603C134.8 42.5889 134.456 42.2149 134.199 41.7383C133.95 41.2543 133.825 40.7079 133.825 40.0993ZM138.786 40.1213C138.786 39.7033 138.698 39.3403 138.522 39.0323C138.353 38.7243 138.13 38.4896 137.851 38.3283C137.572 38.1669 137.272 38.0863 136.949 38.0863C136.626 38.0863 136.326 38.1669 136.047 38.3283C135.768 38.4823 135.541 38.7133 135.365 39.0213C135.196 39.3219 135.112 39.6813 135.112 40.0993C135.112 40.5173 135.196 40.8839 135.365 41.1993C135.541 41.5146 135.768 41.7566 136.047 41.9253C136.333 42.0866 136.634 42.1673 136.949 42.1673C137.272 42.1673 137.572 42.0866 137.851 41.9253C138.13 41.7639 138.353 41.5293 138.522 41.2213C138.698 40.9059 138.786 40.5393 138.786 40.1213ZM141.28 40.1213C141.28 39.4979 141.405 38.9516 141.654 38.4823C141.911 38.0056 142.263 37.6389 142.71 37.3823C143.157 37.1256 143.671 36.9973 144.25 36.9973C144.983 36.9973 145.588 37.1733 146.065 37.5253C146.549 37.8699 146.875 38.3649 147.044 39.0103H145.691C145.581 38.7096 145.405 38.4749 145.163 38.3063C144.921 38.1376 144.617 38.0533 144.25 38.0533C143.737 38.0533 143.326 38.2366 143.018 38.6033C142.717 38.9626 142.567 39.4686 142.567 40.1213C142.567 40.7739 142.717 41.2836 143.018 41.6503C143.326 42.0169 143.737 42.2003 144.25 42.2003C144.976 42.2003 145.456 41.8813 145.691 41.2433H147.044C146.868 41.8593 146.538 42.3506 146.054 42.7173C145.57 43.0766 144.969 43.2563 144.25 43.2563C143.671 43.2563 143.157 43.1279 142.71 42.8713C142.263 42.6073 141.911 42.2406 141.654 41.7713C141.405 41.2946 141.28 40.7446 141.28 40.1213ZM149.757 38.1193V41.4743C149.757 41.7016 149.808 41.8666 149.911 41.9693C150.021 42.0646 150.204 42.1123 150.461 42.1123H151.231V43.1573H150.241C149.676 43.1573 149.243 43.0253 148.943 42.7613C148.642 42.4973 148.492 42.0683 148.492 41.4743V38.1193H147.777V37.0963H148.492V35.5893H149.757V37.0963H151.231V38.1193H149.757ZM157.876 37.0963V43.1573H156.622V42.4423C156.424 42.6916 156.163 42.8896 155.841 43.0363C155.525 43.1756 155.188 43.2453 154.829 43.2453C154.352 43.2453 153.923 43.1463 153.542 42.9483C153.168 42.7503 152.871 42.4569 152.651 42.0683C152.438 41.6796 152.332 41.2103 152.332 40.6603V37.0963H153.575V40.4733C153.575 41.0159 153.71 41.4339 153.982 41.7273C154.253 42.0133 154.623 42.1563 155.093 42.1563C155.562 42.1563 155.932 42.0133 156.204 41.7273C156.482 41.4339 156.622 41.0159 156.622 40.4733V37.0963H157.876ZM160.784 37.9763C160.967 37.6683 161.209 37.4299 161.51 37.2613C161.818 37.0853 162.181 36.9973 162.599 36.9973V38.2953H162.28C161.789 38.2953 161.415 38.4199 161.158 38.6693C160.909 38.9186 160.784 39.3513 160.784 39.9673V43.1573H159.53V37.0963H160.784V37.9763ZM164.39 36.2933C164.162 36.2933 163.972 36.2163 163.818 36.0623C163.664 35.9083 163.587 35.7176 163.587 35.4903C163.587 35.2629 163.664 35.0723 163.818 34.9183C163.972 34.7643 164.162 34.6873 164.39 34.6873C164.61 34.6873 164.797 34.7643 164.951 34.9183C165.105 35.0723 165.182 35.2629 165.182 35.4903C165.182 35.7176 165.105 35.9083 164.951 36.0623C164.797 36.2163 164.61 36.2933 164.39 36.2933ZM165.006 37.0963V43.1573H163.752V37.0963H165.006ZM169.71 36.9973C170.187 36.9973 170.612 37.0963 170.986 37.2943C171.367 37.4923 171.664 37.7856 171.877 38.1743C172.09 38.5629 172.196 39.0323 172.196 39.5823V43.1573H170.953V39.7693C170.953 39.2266 170.817 38.8123 170.546 38.5263C170.275 38.2329 169.904 38.0863 169.435 38.0863C168.966 38.0863 168.592 38.2329 168.313 38.5263C168.042 38.8123 167.906 39.2266 167.906 39.7693V43.1573H166.652V37.0963H167.906V37.7893C168.111 37.5399 168.372 37.3456 168.687 37.2063C169.01 37.0669 169.351 36.9973 169.71 36.9973ZM176.238 36.9973C176.707 36.9973 177.121 37.0926 177.481 37.2833C177.847 37.4666 178.133 37.6976 178.339 37.9763V37.0963H179.604V43.2563C179.604 43.8136 179.486 44.3086 179.252 44.7413C179.017 45.1813 178.676 45.5259 178.229 45.7753C177.789 46.0246 177.261 46.1493 176.645 46.1493C175.823 46.1493 175.141 45.9549 174.599 45.5663C174.056 45.1849 173.748 44.6643 173.675 44.0043H174.918C175.013 44.3196 175.215 44.5726 175.523 44.7633C175.838 44.9613 176.212 45.0603 176.645 45.0603C177.151 45.0603 177.558 44.9063 177.866 44.5983C178.181 44.2903 178.339 43.8429 178.339 43.2563V42.2443C178.126 42.5303 177.836 42.7723 177.47 42.9703C177.11 43.1609 176.7 43.2563 176.238 43.2563C175.71 43.2563 175.226 43.1243 174.786 42.8603C174.353 42.5889 174.008 42.2149 173.752 41.7383C173.502 41.2543 173.378 40.7079 173.378 40.0993C173.378 39.4906 173.502 38.9516 173.752 38.4823C174.008 38.0129 174.353 37.6499 174.786 37.3933C175.226 37.1293 175.71 36.9973 176.238 36.9973ZM178.339 40.1213C178.339 39.7033 178.251 39.3403 178.075 39.0323C177.906 38.7243 177.682 38.4896 177.404 38.3283C177.125 38.1669 176.824 38.0863 176.502 38.0863C176.179 38.0863 175.878 38.1669 175.6 38.3283C175.321 38.4823 175.094 38.7133 174.918 39.0213C174.749 39.3219 174.665 39.6813 174.665 40.0993C174.665 40.5173 174.749 40.8839 174.918 41.1993C175.094 41.5146 175.321 41.7566 175.6 41.9253C175.886 42.0866 176.186 42.1673 176.502 42.1673C176.824 42.1673 177.125 42.0866 177.404 41.9253C177.682 41.7639 177.906 41.5293 178.075 41.2213C178.251 40.9059 178.339 40.5393 178.339 40.1213ZM189.454 37.7893C189.454 38.1779 189.363 38.5446 189.179 38.8893C188.996 39.2339 188.703 39.5163 188.299 39.7363C187.896 39.9489 187.379 40.0553 186.748 40.0553H185.362V43.1573H184.108V35.5123H186.748C187.335 35.5123 187.83 35.6149 188.233 35.8203C188.644 36.0183 188.948 36.2896 189.146 36.6343C189.352 36.9789 189.454 37.3639 189.454 37.7893ZM186.748 39.0323C187.225 39.0323 187.581 38.9259 187.815 38.7133C188.05 38.4933 188.167 38.1853 188.167 37.7893C188.167 36.9533 187.694 36.5353 186.748 36.5353H185.362V39.0323H186.748ZM191.904 35.0173V43.1573H190.65V35.0173H191.904ZM193.133 40.0993C193.133 39.4906 193.257 38.9516 193.507 38.4823C193.763 38.0129 194.108 37.6499 194.541 37.3933C194.981 37.1293 195.465 36.9973 195.993 36.9973C196.469 36.9973 196.884 37.0926 197.236 37.2833C197.595 37.4666 197.881 37.6976 198.094 37.9763V37.0963H199.359V43.1573H198.094V42.2553C197.881 42.5413 197.591 42.7796 197.225 42.9703C196.858 43.1609 196.44 43.2563 195.971 43.2563C195.45 43.2563 194.973 43.1243 194.541 42.8603C194.108 42.5889 193.763 42.2149 193.507 41.7383C193.257 41.2543 193.133 40.7079 193.133 40.0993ZM198.094 40.1213C198.094 39.7033 198.006 39.3403 197.83 39.0323C197.661 38.7243 197.437 38.4896 197.159 38.3283C196.88 38.1669 196.579 38.0863 196.257 38.0863C195.934 38.0863 195.633 38.1669 195.355 38.3283C195.076 38.4823 194.849 38.7133 194.673 39.0213C194.504 39.3219 194.42 39.6813 194.42 40.0993C194.42 40.5173 194.504 40.8839 194.673 41.1993C194.849 41.5146 195.076 41.7566 195.355 41.9253C195.641 42.0866 195.941 42.1673 196.257 42.1673C196.579 42.1673 196.88 42.0866 197.159 41.9253C197.437 41.7639 197.661 41.5293 197.83 41.2213C198.006 40.9059 198.094 40.5393 198.094 40.1213ZM202.469 38.1193V41.4743C202.469 41.7016 202.52 41.8666 202.623 41.9693C202.733 42.0646 202.916 42.1123 203.173 42.1123H203.943V43.1573H202.953C202.388 43.1573 201.955 43.0253 201.655 42.7613C201.354 42.4973 201.204 42.0683 201.204 41.4743V38.1193H200.489V37.0963H201.204V35.5893H202.469V37.0963H203.943V38.1193H202.469ZM207.639 38.1193H206.517V43.1573H205.252V38.1193H204.537V37.0963H205.252V36.6673C205.252 35.9706 205.436 35.4646 205.802 35.1493C206.176 34.8266 206.759 34.6653 207.551 34.6653V35.7103C207.17 35.7103 206.902 35.7836 206.748 35.9303C206.594 36.0696 206.517 36.3153 206.517 36.6673V37.0963H207.639V38.1193ZM211.38 43.2563C210.808 43.2563 210.291 43.1279 209.829 42.8713C209.367 42.6073 209.004 42.2406 208.74 41.7713C208.476 41.2946 208.344 40.7446 208.344 40.1213C208.344 39.5053 208.479 38.9589 208.751 38.4823C209.022 38.0056 209.392 37.6389 209.862 37.3823C210.331 37.1256 210.855 36.9973 211.435 36.9973C212.014 36.9973 212.538 37.1256 213.008 37.3823C213.477 37.6389 213.847 38.0056 214.119 38.4823C214.39 38.9589 214.526 39.5053 214.526 40.1213C214.526 40.7373 214.386 41.2836 214.108 41.7603C213.829 42.2369 213.448 42.6073 212.964 42.8713C212.487 43.1279 211.959 43.2563 211.38 43.2563ZM211.38 42.1673C211.702 42.1673 212.003 42.0903 212.282 41.9363C212.568 41.7823 212.799 41.5513 212.975 41.2433C213.151 40.9353 213.239 40.5613 213.239 40.1213C213.239 39.6813 213.154 39.3109 212.986 39.0103C212.817 38.7023 212.593 38.4713 212.315 38.3173C212.036 38.1633 211.735 38.0863 211.413 38.0863C211.09 38.0863 210.789 38.1633 210.511 38.3173C210.239 38.4713 210.023 38.7023 209.862 39.0103C209.7 39.3109 209.62 39.6813 209.62 40.1213C209.62 40.7739 209.785 41.2799 210.115 41.6393C210.452 41.9913 210.874 42.1673 211.38 42.1673ZM217.019 37.9763C217.203 37.6683 217.445 37.4299 217.745 37.2613C218.053 37.0853 218.416 36.9973 218.834 36.9973V38.2953H218.515C218.024 38.2953 217.65 38.4199 217.393 38.6693C217.144 38.9186 217.019 39.3513 217.019 39.9673V43.1573H215.765V37.0963H217.019V37.9763ZM227.324 36.9973C227.801 36.9973 228.226 37.0963 228.6 37.2943C228.981 37.4923 229.278 37.7856 229.491 38.1743C229.711 38.5629 229.821 39.0323 229.821 39.5823V43.1573H228.578V39.7693C228.578 39.2266 228.442 38.8123 228.171 38.5263C227.9 38.2329 227.529 38.0863 227.06 38.0863C226.591 38.0863 226.217 38.2329 225.938 38.5263C225.667 38.8123 225.531 39.2266 225.531 39.7693V43.1573H224.288V39.7693C224.288 39.2266 224.152 38.8123 223.881 38.5263C223.61 38.2329 223.239 38.0863 222.77 38.0863C222.301 38.0863 221.927 38.2329 221.648 38.5263C221.377 38.8123 221.241 39.2266 221.241 39.7693V43.1573H219.987V37.0963H221.241V37.7893C221.446 37.5399 221.707 37.3456 222.022 37.2063C222.337 37.0669 222.675 36.9973 223.034 36.9973C223.518 36.9973 223.951 37.0999 224.332 37.3053C224.713 37.5106 225.007 37.8076 225.212 38.1963C225.395 37.8296 225.681 37.5399 226.07 37.3273C226.459 37.1073 226.877 36.9973 227.324 36.9973Z" fill="white"/>
</svg>
