<svg width="438" height="278" viewBox="0 0 438 278" fill="none" xmlns="http://www.w3.org/2000/svg">
<path d="M40.32 80.344C35.008 80.344 30.08 79.512 25.536 77.848C20.992 76.12 17.056 73.688 13.728 70.552C10.464 67.416 7.904 63.736 6.048 59.512C4.192 55.224 3.264 50.52 3.264 45.4C3.264 40.28 4.192 35.608 6.048 31.384C7.904 27.096 10.496 23.384 13.824 20.248C17.152 17.112 21.088 14.712 25.632 13.048C30.24 11.32 35.264 10.456 40.704 10.456C47.04 10.456 52.704 11.512 57.696 13.624C62.688 15.736 66.816 18.776 70.08 22.744L57.984 33.688C55.68 31.192 53.184 29.336 50.496 28.12C47.872 26.84 44.928 26.2 41.664 26.2C38.784 26.2 36.16 26.648 33.792 27.544C31.424 28.44 29.408 29.752 27.744 31.48C26.08 33.144 24.768 35.16 23.808 37.528C22.912 39.832 22.464 42.456 22.464 45.4C22.464 48.216 22.912 50.808 23.808 53.176C24.768 55.544 26.08 57.592 27.744 59.32C29.408 60.984 31.392 62.296 33.696 63.256C36.064 64.152 38.656 64.6 41.472 64.6C44.288 64.6 47.04 64.152 49.728 63.256C52.416 62.296 55.136 60.696 57.888 58.456L68.544 71.8C64.704 74.552 60.256 76.664 55.2 78.136C50.144 79.608 45.184 80.344 40.32 80.344ZM51.744 69.304V43.96H68.544V71.8L51.744 69.304ZM106.995 79.864C100.851 79.864 95.475 78.712 90.867 76.408C86.323 74.04 82.771 70.84 80.211 66.808C77.715 62.712 76.467 58.072 76.467 52.888C76.467 47.704 77.683 43.096 80.115 39.064C82.611 34.968 86.035 31.8 90.387 29.56C94.739 27.256 99.635 26.104 105.075 26.104C110.195 26.104 114.867 27.16 119.091 29.272C123.315 31.32 126.675 34.36 129.171 38.392C131.667 42.424 132.915 47.32 132.915 53.08C132.915 53.72 132.883 54.456 132.819 55.288C132.755 56.12 132.691 56.888 132.627 57.592H91.443V47.992H122.931L116.019 50.68C116.083 48.312 115.635 46.264 114.675 44.536C113.779 42.808 112.499 41.464 110.835 40.504C109.235 39.544 107.347 39.064 105.171 39.064C102.995 39.064 101.075 39.544 99.411 40.504C97.811 41.464 96.563 42.84 95.667 44.632C94.771 46.36 94.323 48.408 94.323 50.776V53.56C94.323 56.12 94.835 58.328 95.859 60.184C96.947 62.04 98.483 63.48 100.467 64.504C102.451 65.464 104.819 65.944 107.571 65.944C110.131 65.944 112.307 65.592 114.099 64.888C115.955 64.12 117.779 62.968 119.571 61.432L129.171 71.416C126.675 74.168 123.603 76.28 119.955 77.752C116.307 79.16 111.987 79.864 106.995 79.864ZM164.557 79.864C157.901 79.864 152.717 78.232 149.005 74.968C145.293 71.64 143.437 66.648 143.437 59.992V15.352H161.677V59.8C161.677 61.656 162.189 63.128 163.213 64.216C164.237 65.24 165.549 65.752 167.149 65.752C169.325 65.752 171.181 65.208 172.717 64.12L177.229 76.888C175.693 77.912 173.805 78.648 171.565 79.096C169.325 79.608 166.989 79.864 164.557 79.864ZM135.853 42.52V28.888H173.581V42.52H135.853ZM221.128 98.488C218.376 98.488 215.592 98.04 212.776 97.144C210.024 96.312 207.784 95.192 206.056 93.784L212.392 81.016C213.48 81.976 214.728 82.712 216.136 83.224C217.608 83.8 219.048 84.088 220.456 84.088C222.44 84.088 224.008 83.64 225.16 82.744C226.312 81.848 227.304 80.44 228.136 78.52L230.536 72.472L231.976 70.648L249.64 26.968H267.016L244.552 81.112C242.76 85.592 240.68 89.08 238.312 91.576C236.008 94.136 233.416 95.928 230.536 96.952C227.72 97.976 224.584 98.488 221.128 98.488ZM228.232 81.208L205.288 26.968H224.008L240.904 69.016L228.232 81.208ZM296.437 79.864C290.741 79.864 285.685 78.712 281.269 76.408C276.853 74.104 273.365 70.936 270.805 66.904C268.309 62.808 267.061 58.136 267.061 52.888C267.061 47.64 268.309 43 270.805 38.968C273.365 34.936 276.853 31.8 281.269 29.56C285.685 27.256 290.741 26.104 296.437 26.104C302.133 26.104 307.189 27.256 311.605 29.56C316.085 31.8 319.573 34.936 322.069 38.968C324.565 43 325.813 47.64 325.813 52.888C325.813 58.136 324.565 62.808 322.069 66.904C319.573 70.936 316.085 74.104 311.605 76.408C307.189 78.712 302.133 79.864 296.437 79.864ZM296.437 65.368C298.549 65.368 300.405 64.888 302.005 63.928C303.669 62.968 304.981 61.56 305.941 59.704C306.901 57.784 307.381 55.512 307.381 52.888C307.381 50.264 306.901 48.056 305.941 46.264C304.981 44.408 303.669 43 302.005 42.04C300.405 41.08 298.549 40.6 296.437 40.6C294.389 40.6 292.533 41.08 290.869 42.04C289.269 43 287.957 44.408 286.933 46.264C285.973 48.056 285.493 50.264 285.493 52.888C285.493 55.512 285.973 57.784 286.933 59.704C287.957 61.56 289.269 62.968 290.869 63.928C292.533 64.888 294.389 65.368 296.437 65.368ZM356.15 79.864C351.926 79.864 348.118 79.032 344.726 77.368C341.398 75.704 338.774 73.112 336.854 69.592C334.998 66.008 334.07 61.496 334.07 56.056V26.968H352.31V53.08C352.31 57.112 353.046 59.992 354.518 61.72C356.054 63.448 358.198 64.312 360.95 64.312C362.742 64.312 364.374 63.896 365.846 63.064C367.318 62.232 368.502 60.92 369.398 59.128C370.294 57.272 370.742 54.904 370.742 52.024V26.968H388.982V79H371.606V64.312L374.966 68.44C373.174 72.28 370.582 75.16 367.19 77.08C363.798 78.936 360.118 79.864 356.15 79.864ZM400.731 79V26.968H418.107V42.136L415.515 37.816C417.051 33.912 419.547 31 423.003 29.08C426.459 27.096 430.651 26.104 435.579 26.104V42.52C434.747 42.392 434.011 42.328 433.371 42.328C432.795 42.264 432.155 42.232 431.451 42.232C427.739 42.232 424.731 43.256 422.427 45.304C420.123 47.288 418.971 50.552 418.971 55.096V79H400.731ZM28.128 259.864C23.456 259.864 19.168 258.776 15.264 256.6C11.36 254.424 8.256 251.32 5.952 247.288C3.712 243.256 2.592 238.488 2.592 232.984C2.592 227.48 3.712 222.744 5.952 218.776C8.256 214.744 11.36 211.64 15.264 209.464C19.168 207.224 23.456 206.104 28.128 206.104C32.864 206.104 36.768 207.064 39.84 208.984C42.912 210.904 45.216 213.848 46.752 217.816C48.288 221.72 49.056 226.776 49.056 232.984C49.056 239.128 48.224 244.184 46.56 248.152C44.96 252.056 42.592 255 39.456 256.984C36.384 258.904 32.608 259.864 28.128 259.864ZM31.968 245.368C34.016 245.368 35.84 244.888 37.44 243.928C39.104 242.968 40.416 241.56 41.376 239.704C42.4 237.848 42.912 235.608 42.912 232.984C42.912 230.36 42.4 228.12 41.376 226.264C40.416 224.408 39.104 223 37.44 222.04C35.84 221.08 34.016 220.6 31.968 220.6C29.92 220.6 28.064 221.08 26.4 222.04C24.8 223 23.488 224.408 22.464 226.264C21.504 228.12 21.024 230.36 21.024 232.984C21.024 235.608 21.504 237.848 22.464 239.704C23.488 241.56 24.8 242.968 26.4 243.928C28.064 244.888 29.92 245.368 31.968 245.368ZM42.624 277.624V250.264L43.584 232.984L43.488 215.8V206.968H60.864V277.624H42.624ZM94.494 259.864C90.27 259.864 86.462 259.032 83.07 257.368C79.742 255.704 77.118 253.112 75.198 249.592C73.342 246.008 72.414 241.496 72.414 236.056V206.968H90.654V233.08C90.654 237.112 91.39 239.992 92.862 241.72C94.398 243.448 96.542 244.312 99.294 244.312C101.086 244.312 102.718 243.896 104.19 243.064C105.662 242.232 106.846 240.92 107.742 239.128C108.638 237.272 109.086 234.904 109.086 232.024V206.968H127.326V259H109.95V244.312L113.31 248.44C111.518 252.28 108.926 255.16 105.534 257.08C102.142 258.936 98.462 259.864 94.494 259.864ZM165.187 259.864C159.491 259.864 154.435 258.712 150.019 256.408C145.603 254.104 142.115 250.936 139.555 246.904C137.059 242.808 135.811 238.136 135.811 232.888C135.811 227.64 137.059 223 139.555 218.968C142.115 214.936 145.603 211.8 150.019 209.56C154.435 207.256 159.491 206.104 165.187 206.104C170.883 206.104 175.939 207.256 180.355 209.56C184.835 211.8 188.323 214.936 190.819 218.968C193.315 223 194.563 227.64 194.563 232.888C194.563 238.136 193.315 242.808 190.819 246.904C188.323 250.936 184.835 254.104 180.355 256.408C175.939 258.712 170.883 259.864 165.187 259.864ZM165.187 245.368C167.299 245.368 169.155 244.888 170.755 243.928C172.419 242.968 173.731 241.56 174.691 239.704C175.651 237.784 176.131 235.512 176.131 232.888C176.131 230.264 175.651 228.056 174.691 226.264C173.731 224.408 172.419 223 170.755 222.04C169.155 221.08 167.299 220.6 165.187 220.6C163.139 220.6 161.283 221.08 159.619 222.04C158.019 223 156.707 224.408 155.683 226.264C154.723 228.056 154.243 230.264 154.243 232.888C154.243 235.512 154.723 237.784 155.683 239.704C156.707 241.56 158.019 242.968 159.619 243.928C161.283 244.888 163.139 245.368 165.187 245.368ZM226.244 259.864C219.588 259.864 214.404 258.232 210.692 254.968C206.98 251.64 205.124 246.648 205.124 239.992V195.352H223.364V239.8C223.364 241.656 223.876 243.128 224.9 244.216C225.924 245.24 227.236 245.752 228.836 245.752C231.012 245.752 232.868 245.208 234.404 244.12L238.916 256.888C237.38 257.912 235.492 258.648 233.252 259.096C231.012 259.608 228.676 259.864 226.244 259.864ZM197.54 222.52V208.888H235.268V222.52H197.54ZM271.714 259.864C265.57 259.864 260.194 258.712 255.586 256.408C251.042 254.04 247.49 250.84 244.93 246.808C242.434 242.712 241.186 238.072 241.186 232.888C241.186 227.704 242.402 223.096 244.834 219.064C247.33 214.968 250.754 211.8 255.106 209.56C259.458 207.256 264.354 206.104 269.794 206.104C274.914 206.104 279.586 207.16 283.81 209.272C288.034 211.32 291.394 214.36 293.89 218.392C296.386 222.424 297.634 227.32 297.634 233.08C297.634 233.72 297.602 234.456 297.538 235.288C297.474 236.12 297.41 236.888 297.346 237.592H256.162V227.992H287.65L280.738 230.68C280.802 228.312 280.354 226.264 279.394 224.536C278.498 222.808 277.218 221.464 275.554 220.504C273.954 219.544 272.066 219.064 269.89 219.064C267.714 219.064 265.794 219.544 264.13 220.504C262.53 221.464 261.282 222.84 260.386 224.632C259.49 226.36 259.042 228.408 259.042 230.776V233.56C259.042 236.12 259.554 238.328 260.578 240.184C261.666 242.04 263.202 243.48 265.186 244.504C267.17 245.464 269.538 245.944 272.29 245.944C274.85 245.944 277.026 245.592 278.818 244.888C280.674 244.12 282.498 242.968 284.29 241.432L293.89 251.416C291.394 254.168 288.322 256.28 284.674 257.752C281.026 259.16 276.706 259.864 271.714 259.864ZM313.724 259.864C310.652 259.864 308.06 258.84 305.948 256.792C303.836 254.744 302.78 252.152 302.78 249.016C302.78 245.752 303.836 243.16 305.948 241.24C308.06 239.256 310.652 238.264 313.724 238.264C316.796 238.264 319.388 239.256 321.5 241.24C323.612 243.16 324.668 245.752 324.668 249.016C324.668 252.152 323.612 254.744 321.5 256.792C319.388 258.84 316.796 259.864 313.724 259.864Z" fill="white"/>
<mask id="path-2-outside-1_17_4" maskUnits="userSpaceOnUse" x="1" y="93" width="363" height="83" fill="black">
<rect fill="white" x="1" y="93" width="363" height="83"/>
<path d="M5.856 173V120.968H24.096V173H5.856ZM14.976 115.208C11.648 115.208 8.96 114.28 6.912 112.424C4.864 110.568 3.84 108.264 3.84 105.512C3.84 102.76 4.864 100.456 6.912 98.6C8.96 96.744 11.648 95.816 14.976 95.816C18.304 95.816 20.992 96.712 23.04 98.504C25.088 100.232 26.112 102.472 26.112 105.224C26.112 108.104 25.088 110.504 23.04 112.424C21.056 114.28 18.368 115.208 14.976 115.208ZM69.8378 120.104C73.8698 120.104 77.5178 120.936 80.7817 122.6C84.0458 124.2 86.6058 126.696 88.4618 130.088C90.3818 133.48 91.3418 137.864 91.3418 143.24V173H73.1018V146.216C73.1018 142.504 72.3338 139.816 70.7978 138.152C69.3258 136.424 67.2458 135.56 64.5578 135.56C62.6378 135.56 60.8778 136.008 59.2778 136.904C57.6778 137.736 56.4298 139.048 55.5338 140.84C54.6378 142.632 54.1898 144.968 54.1898 147.848V173H35.9498V120.968H53.3258V135.752L49.9658 131.432C51.9498 127.656 54.6698 124.84 58.1258 122.984C61.5818 121.064 65.4858 120.104 69.8378 120.104ZM121.706 173.864C117.29 173.864 112.97 173.352 108.746 172.328C104.586 171.304 101.226 170.024 98.6655 168.488L104.138 156.008C106.57 157.48 109.418 158.664 112.682 159.56C115.946 160.392 119.146 160.808 122.281 160.808C125.354 160.808 127.466 160.488 128.618 159.848C129.834 159.208 130.442 158.344 130.442 157.256C130.442 156.232 129.866 155.496 128.714 155.048C127.626 154.536 126.154 154.152 124.298 153.896C122.506 153.64 120.522 153.352 118.346 153.032C116.17 152.712 113.962 152.296 111.722 151.784C109.546 151.208 107.53 150.376 105.674 149.288C103.882 148.136 102.442 146.6 101.354 144.68C100.266 142.76 99.7215 140.328 99.7215 137.384C99.7215 134.056 100.682 131.112 102.602 128.552C104.586 125.928 107.466 123.88 111.242 122.408C115.018 120.872 119.626 120.104 125.066 120.104C128.714 120.104 132.394 120.488 136.106 121.256C139.882 121.96 143.05 123.048 145.61 124.52L140.138 136.904C137.578 135.432 135.018 134.44 132.458 133.928C129.898 133.352 127.466 133.064 125.161 133.064C122.09 133.064 119.914 133.416 118.634 134.12C117.418 134.824 116.81 135.688 116.81 136.712C116.81 137.736 117.354 138.536 118.442 139.112C119.53 139.624 120.97 140.04 122.762 140.36C124.618 140.616 126.634 140.904 128.81 141.224C130.986 141.48 133.162 141.896 135.338 142.472C137.578 143.048 139.594 143.912 141.386 145.064C143.242 146.152 144.714 147.656 145.802 149.576C146.89 151.432 147.434 153.832 147.434 156.776C147.434 159.976 146.442 162.856 144.458 165.416C142.538 167.976 139.658 170.024 135.818 171.56C132.042 173.096 127.338 173.864 121.706 173.864ZM178.526 173.864C171.87 173.864 166.686 172.232 162.974 168.968C159.262 165.64 157.406 160.648 157.406 153.992V109.352H175.646V153.8C175.646 155.656 176.158 157.128 177.182 158.216C178.206 159.24 179.518 159.752 181.118 159.752C183.294 159.752 185.15 159.208 186.686 158.12L191.198 170.888C189.662 171.912 187.774 172.648 185.534 173.096C183.294 173.608 180.958 173.864 178.526 173.864ZM149.822 136.52V122.888H187.55V136.52H149.822ZM230.007 173V163.304L228.759 160.904V143.048C228.759 140.168 227.863 137.96 226.071 136.424C224.343 134.824 221.559 134.024 217.719 134.024C215.223 134.024 212.695 134.44 210.135 135.272C207.575 136.04 205.399 137.128 203.607 138.536L197.463 126.152C200.407 124.232 203.927 122.76 208.023 121.736C212.183 120.648 216.311 120.104 220.407 120.104C228.855 120.104 235.383 122.056 239.991 125.96C244.663 129.8 246.999 135.848 246.999 144.104V173H230.007ZM214.647 173.864C210.487 173.864 206.967 173.16 204.087 171.752C201.207 170.344 198.999 168.424 197.463 165.992C195.991 163.56 195.255 160.84 195.255 157.832C195.255 154.632 196.055 151.88 197.655 149.576C199.319 147.208 201.847 145.416 205.239 144.2C208.631 142.92 213.015 142.28 218.391 142.28H230.679V151.784H220.887C217.943 151.784 215.863 152.264 214.647 153.224C213.495 154.184 212.919 155.464 212.919 157.064C212.919 158.664 213.527 159.944 214.743 160.904C215.959 161.864 217.623 162.344 219.735 162.344C221.719 162.344 223.511 161.864 225.111 160.904C226.775 159.88 227.991 158.344 228.759 156.296L231.255 163.016C230.295 166.6 228.407 169.32 225.591 171.176C222.839 172.968 219.191 173.864 214.647 173.864ZM292.4 120.104C296.432 120.104 300.08 120.936 303.344 122.6C306.608 124.2 309.168 126.696 311.024 130.088C312.944 133.48 313.904 137.864 313.904 143.24V173H295.664V146.216C295.664 142.504 294.896 139.816 293.36 138.152C291.888 136.424 289.808 135.56 287.12 135.56C285.2 135.56 283.44 136.008 281.84 136.904C280.24 137.736 278.992 139.048 278.096 140.84C277.2 142.632 276.752 144.968 276.752 147.848V173H258.512V120.968H275.888V135.752L272.528 131.432C274.512 127.656 277.232 124.84 280.688 122.984C284.144 121.064 288.048 120.104 292.4 120.104ZM348.588 173.864C341.932 173.864 336.748 172.232 333.036 168.968C329.324 165.64 327.468 160.648 327.468 153.992V109.352H345.708V153.8C345.708 155.656 346.22 157.128 347.244 158.216C348.268 159.24 349.58 159.752 351.18 159.752C353.356 159.752 355.212 159.208 356.748 158.12L361.26 170.888C359.724 171.912 357.836 172.648 355.596 173.096C353.356 173.608 351.02 173.864 348.588 173.864ZM319.884 136.52V122.888H357.612V136.52H319.884Z"/>
</mask>
<path d="M5.856 173H3.856V175H5.856V173ZM5.856 120.968V118.968H3.856V120.968H5.856ZM24.096 120.968H26.096V118.968H24.096V120.968ZM24.096 173V175H26.096V173H24.096ZM6.912 112.424L8.25504 110.942L8.25504 110.942L6.912 112.424ZM6.912 98.6L8.25504 100.082L8.25504 100.082L6.912 98.6ZM23.04 98.504L21.723 100.009L21.7365 100.021L21.7503 100.033L23.04 98.504ZM23.04 112.424L24.4063 113.885L24.4079 113.883L23.04 112.424ZM7.856 173V120.968H3.856V173H7.856ZM5.856 122.968H24.096V118.968H5.856V122.968ZM22.096 120.968V173H26.096V120.968H22.096ZM24.096 171H5.856V175H24.096V171ZM14.976 113.208C12.0377 113.208 9.86307 112.399 8.25504 110.942L5.56896 113.906C8.05693 116.161 11.2583 117.208 14.976 117.208V113.208ZM8.25504 110.942C6.62332 109.463 5.84 107.697 5.84 105.512H1.84C1.84 108.831 3.10469 111.673 5.56896 113.906L8.25504 110.942ZM5.84 105.512C5.84 103.327 6.62332 101.561 8.25504 100.082L5.56896 97.118C3.10468 99.3513 1.84 102.193 1.84 105.512H5.84ZM8.25504 100.082C9.86307 98.6247 12.0377 97.816 14.976 97.816V93.816C11.2583 93.816 8.05693 94.8633 5.56896 97.118L8.25504 100.082ZM14.976 97.816C17.9322 97.816 20.1163 98.6033 21.723 100.009L24.357 96.9988C21.8677 94.8207 18.6758 93.816 14.976 93.816V97.816ZM21.7503 100.033C23.3341 101.369 24.112 103.043 24.112 105.224H28.112C28.112 101.901 26.842 99.0951 24.3297 96.9754L21.7503 100.033ZM24.112 105.224C24.112 107.567 23.3051 109.434 21.6721 110.965L24.4079 113.883C26.8709 111.574 28.112 108.641 28.112 105.224H24.112ZM21.6737 110.963C20.1464 112.392 17.9925 113.208 14.976 113.208V117.208C18.7435 117.208 21.9656 116.168 24.4063 113.885L21.6737 110.963ZM80.7817 122.6L79.8734 124.382L79.8874 124.389L79.9014 124.396L80.7817 122.6ZM88.4618 130.088L86.7072 131.048L86.7141 131.061L86.7212 131.073L88.4618 130.088ZM91.3418 173V175H93.3418V173H91.3418ZM73.1018 173H71.1018V175H73.1018V173ZM70.7978 138.152L69.2753 139.449L69.3011 139.479L69.3281 139.509L70.7978 138.152ZM59.2778 136.904L60.2005 138.678L60.2279 138.664L60.255 138.649L59.2778 136.904ZM54.1898 173V175H56.1898V173H54.1898ZM35.9498 173H33.9498V175H35.9498V173ZM35.9498 120.968V118.968H33.9498V120.968H35.9498ZM53.3258 120.968H55.3258V118.968H53.3258V120.968ZM53.3258 135.752L51.747 136.98L55.3258 141.581V135.752H53.3258ZM49.9658 131.432L48.1953 130.502L47.5958 131.643L48.387 132.66L49.9658 131.432ZM58.1258 122.984L59.072 124.746L59.0846 124.739L59.097 124.732L58.1258 122.984ZM69.8378 122.104C73.5863 122.104 76.9181 122.875 79.8734 124.382L81.6901 120.818C78.1174 118.997 74.1532 118.104 69.8378 118.104V122.104ZM79.9014 124.396C82.7705 125.802 85.036 127.994 86.7072 131.048L90.2163 129.128C88.1755 125.398 85.321 122.598 81.6621 120.804L79.9014 124.396ZM86.7212 131.073C88.4187 134.072 89.3418 138.084 89.3418 143.24H93.3418C93.3418 137.644 92.3448 132.888 90.2023 129.103L86.7212 131.073ZM89.3418 143.24V173H93.3418V143.24H89.3418ZM91.3418 171H73.1018V175H91.3418V171ZM75.1018 173V146.216H71.1018V173H75.1018ZM75.1018 146.216C75.1018 142.304 74.3053 139.003 72.2674 136.795L69.3281 139.509C70.3622 140.629 71.1018 142.704 71.1018 146.216H75.1018ZM72.3202 136.855C70.3973 134.598 67.7126 133.56 64.5578 133.56V137.56C66.7789 137.56 68.2542 138.25 69.2753 139.449L72.3202 136.855ZM64.5578 133.56C62.3123 133.56 60.2133 134.088 58.3005 135.159L60.255 138.649C61.5422 137.928 62.9632 137.56 64.5578 137.56V133.56ZM58.355 135.13C56.3394 136.178 54.8076 137.82 53.7449 139.946L57.3226 141.734C58.0519 140.276 59.0161 139.294 60.2005 138.678L58.355 135.13ZM53.7449 139.946C52.6628 142.11 52.1898 144.784 52.1898 147.848H56.1898C56.1898 145.152 56.6127 143.154 57.3226 141.734L53.7449 139.946ZM52.1898 147.848V173H56.1898V147.848H52.1898ZM54.1898 171H35.9498V175H54.1898V171ZM37.9498 173V120.968H33.9498V173H37.9498ZM35.9498 122.968H53.3258V118.968H35.9498V122.968ZM51.3258 120.968V135.752H55.3258V120.968H51.3258ZM54.9045 134.524L51.5445 130.204L48.387 132.66L51.747 136.98L54.9045 134.524ZM51.7362 132.362C53.5516 128.907 55.9984 126.397 59.072 124.746L57.1795 121.222C53.3411 123.283 50.3479 126.405 48.1953 130.502L51.7362 132.362ZM59.097 124.732C62.2267 122.994 65.7906 122.104 69.8378 122.104V118.104C65.1809 118.104 60.9368 119.134 57.1545 121.236L59.097 124.732ZM108.746 172.328L108.267 174.27L108.274 174.272L108.746 172.328ZM98.6655 168.488L96.8338 167.685L96.1269 169.297L97.6365 170.203L98.6655 168.488ZM104.138 156.008L105.173 154.297L103.222 153.116L102.306 155.205L104.138 156.008ZM112.682 159.56L112.152 161.489L112.17 161.494L112.187 161.498L112.682 159.56ZM128.618 159.848L127.686 158.078L127.666 158.089L127.646 158.1L128.618 159.848ZM128.714 155.048L127.862 156.858L127.924 156.887L127.989 156.912L128.714 155.048ZM124.298 153.896L124.015 155.876L124.024 155.877L124.298 153.896ZM118.346 153.032L118.055 155.011L118.055 155.011L118.346 153.032ZM111.722 151.784L111.21 153.717L111.243 153.726L111.276 153.734L111.722 151.784ZM105.674 149.288L104.592 150.97L104.627 150.993L104.662 151.013L105.674 149.288ZM101.354 144.68L103.094 143.694L103.094 143.694L101.354 144.68ZM102.602 128.552L101.006 127.346L101.002 127.352L102.602 128.552ZM111.242 122.408L111.968 124.271L111.982 124.266L111.995 124.261L111.242 122.408ZM136.106 121.256L135.7 123.215L135.72 123.219L135.739 123.222L136.106 121.256ZM145.61 124.52L147.439 125.328L148.166 123.683L146.606 122.786L145.61 124.52ZM140.138 136.904L139.141 138.638L141.068 139.746L141.967 137.712L140.138 136.904ZM132.458 133.928L132.018 135.879L132.042 135.884L132.065 135.889L132.458 133.928ZM118.634 134.12L117.67 132.368L117.65 132.378L117.631 132.389L118.634 134.12ZM118.442 139.112L117.506 140.88L117.547 140.902L117.59 140.922L118.442 139.112ZM122.762 140.36L122.41 142.329L122.449 142.336L122.488 142.341L122.762 140.36ZM128.81 141.224L128.519 143.203L128.547 143.207L128.576 143.21L128.81 141.224ZM135.338 142.472L134.826 144.405L134.833 144.407L134.839 144.409L135.338 142.472ZM141.386 145.064L140.304 146.746L140.339 146.769L140.374 146.789L141.386 145.064ZM145.802 149.576L144.061 150.562L144.069 150.575L144.076 150.587L145.802 149.576ZM144.458 165.416L142.877 164.191L142.867 164.203L142.858 164.216L144.458 165.416ZM135.818 171.56L135.075 169.703L135.064 169.707L135.818 171.56ZM121.706 171.864C117.446 171.864 113.284 171.37 109.217 170.384L108.274 174.272C112.655 175.334 117.133 175.864 121.706 175.864V171.864ZM109.224 170.386C105.181 169.391 102.027 168.172 99.6945 166.773L97.6365 170.203C100.424 171.876 103.99 173.217 108.267 174.27L109.224 170.386ZM100.497 169.291L105.969 156.811L102.306 155.205L96.8338 167.685L100.497 169.291ZM103.102 157.719C105.718 159.303 108.743 160.553 112.152 161.489L113.211 157.631C110.092 156.775 107.421 155.657 105.173 154.297L103.102 157.719ZM112.187 161.498C115.601 162.368 118.967 162.808 122.281 162.808V158.808C119.324 158.808 116.29 158.416 113.176 157.622L112.187 161.498ZM122.281 162.808C123.878 162.808 125.281 162.725 126.469 162.545C127.633 162.369 128.715 162.082 129.589 161.596L127.646 158.1C127.368 158.254 126.818 158.447 125.87 158.591C124.946 158.731 123.757 158.808 122.281 158.808V162.808ZM129.549 161.618C131.218 160.739 132.442 159.292 132.442 157.256H128.442C128.442 157.396 128.449 157.677 127.686 158.078L129.549 161.618ZM132.442 157.256C132.442 156.343 132.175 155.457 131.585 154.703C131.015 153.975 130.244 153.497 129.438 153.184L127.989 156.912C128.335 157.047 128.428 157.161 128.434 157.169C128.437 157.172 128.436 157.171 128.435 157.168C128.433 157.166 128.433 157.164 128.433 157.164C128.433 157.165 128.435 157.171 128.437 157.185C128.439 157.199 128.442 157.222 128.442 157.256H132.442ZM129.565 153.238C128.222 152.606 126.529 152.185 124.571 151.915L124.024 155.877C125.778 156.119 127.029 156.466 127.862 156.858L129.565 153.238ZM124.58 151.916C122.792 151.661 120.81 151.373 118.636 151.053L118.055 155.011C120.233 155.331 122.219 155.619 124.015 155.876L124.58 151.916ZM118.636 151.053C116.515 150.741 114.358 150.335 112.167 149.834L111.276 153.734C113.565 154.257 115.824 154.683 118.055 155.011L118.636 151.053ZM112.233 149.851C110.224 149.319 108.377 148.555 106.685 147.563L104.662 151.013C106.682 152.197 108.867 153.097 111.21 153.717L112.233 149.851ZM106.755 147.606C105.246 146.635 104.028 145.342 103.094 143.694L99.6135 145.666C100.855 147.858 102.517 149.637 104.592 150.97L106.755 147.606ZM103.094 143.694C102.224 142.159 101.722 140.094 101.722 137.384H97.7215C97.7215 140.562 98.3075 143.361 99.6135 145.666L103.094 143.694ZM101.722 137.384C101.722 134.47 102.552 131.951 104.202 129.752L101.002 127.352C98.8109 130.273 97.7215 133.642 97.7215 137.384H101.722ZM104.197 129.758C105.911 127.491 108.457 125.64 111.968 124.271L110.515 120.545C106.474 122.12 103.26 124.365 101.006 127.346L104.197 129.758ZM111.995 124.261C115.466 122.849 119.802 122.104 125.066 122.104V118.104C119.449 118.104 114.569 118.895 110.488 120.555L111.995 124.261ZM125.066 122.104C128.572 122.104 132.116 122.473 135.7 123.215L136.511 119.297C132.671 118.503 128.855 118.104 125.066 118.104V122.104ZM135.739 123.222C139.356 123.897 142.297 124.922 144.613 126.254L146.606 122.786C143.802 121.174 140.407 120.023 136.472 119.29L135.739 123.222ZM143.78 123.712L138.308 136.096L141.967 137.712L147.439 125.328L143.78 123.712ZM141.134 135.17C138.411 133.604 135.648 132.527 132.85 131.967L132.065 135.889C134.387 136.353 136.744 137.26 139.141 138.638L141.134 135.17ZM132.897 131.977C130.212 131.373 127.632 131.064 125.161 131.064V135.064C127.299 135.064 129.583 135.331 132.018 135.879L132.897 131.977ZM125.161 131.064C122.047 131.064 119.425 131.402 117.67 132.368L119.597 135.872C120.402 135.43 122.132 135.064 125.161 135.064V131.064ZM117.631 132.389C116.057 133.301 114.81 134.719 114.81 136.712H118.81C118.81 136.657 118.778 136.347 119.636 135.851L117.631 132.389ZM114.81 136.712C114.81 138.641 115.922 140.041 117.506 140.88L119.377 137.344C119.045 137.168 118.917 137.022 118.871 136.955C118.838 136.907 118.81 136.848 118.81 136.712H114.81ZM117.59 140.922C118.896 141.536 120.524 141.992 122.41 142.329L123.113 138.391C121.415 138.088 120.163 137.712 119.293 137.302L117.59 140.922ZM122.488 142.341C124.337 142.596 126.347 142.883 128.519 143.203L129.1 139.245C126.92 138.925 124.898 138.636 123.035 138.379L122.488 142.341ZM128.576 143.21C130.655 143.455 132.739 143.853 134.826 144.405L135.849 140.539C133.584 139.939 131.316 139.505 129.043 139.238L128.576 143.21ZM134.839 144.409C136.89 144.936 138.706 145.719 140.304 146.746L142.467 143.382C140.481 142.105 138.265 141.16 135.836 140.535L134.839 144.409ZM140.374 146.789C141.918 147.695 143.142 148.94 144.061 150.562L147.542 148.59C146.285 146.372 144.565 144.609 142.397 143.339L140.374 146.789ZM144.076 150.587C144.93 152.044 145.434 154.062 145.434 156.776H149.434C149.434 153.602 148.849 150.82 147.527 148.565L144.076 150.587ZM145.434 156.776C145.434 159.527 144.593 161.977 142.877 164.191L146.038 166.641C148.29 163.735 149.434 160.425 149.434 156.776H145.434ZM142.858 164.216C141.213 166.408 138.672 168.264 135.075 169.703L136.56 173.417C140.643 171.784 143.862 169.544 146.058 166.616L142.858 164.216ZM135.064 169.707C131.6 171.117 127.171 171.864 121.706 171.864V175.864C127.504 175.864 132.483 175.075 136.571 173.413L135.064 169.707ZM162.974 168.968L161.638 170.457L161.646 170.464L161.653 170.47L162.974 168.968ZM157.406 109.352V107.352H155.406V109.352H157.406ZM175.646 109.352H177.646V107.352H175.646V109.352ZM177.182 158.216L175.725 159.587L175.746 159.609L175.767 159.63L177.182 158.216ZM186.686 158.12L188.571 157.454L187.689 154.958L185.529 156.488L186.686 158.12ZM191.198 170.888L192.307 172.552L193.602 171.689L193.083 170.222L191.198 170.888ZM185.534 173.096L185.141 171.135L185.114 171.14L185.088 171.146L185.534 173.096ZM149.822 136.52H147.822V138.52H149.822V136.52ZM149.822 122.888V120.888H147.822V122.888H149.822ZM187.55 122.888H189.55V120.888H187.55V122.888ZM187.55 136.52V138.52H189.55V136.52H187.55ZM178.526 171.864C172.185 171.864 167.531 170.312 164.294 167.466L161.653 170.47C165.84 174.152 171.554 175.864 178.526 175.864V171.864ZM164.309 167.479C161.149 164.646 159.406 160.28 159.406 153.992H155.406C155.406 161.016 157.374 166.634 161.638 170.457L164.309 167.479ZM159.406 153.992V109.352H155.406V153.992H159.406ZM157.406 111.352H175.646V107.352H157.406V111.352ZM173.646 109.352V153.8H177.646V109.352H173.646ZM173.646 153.8C173.646 156.036 174.272 158.043 175.725 159.587L178.638 156.845C178.043 156.213 177.646 155.276 177.646 153.8H173.646ZM175.767 159.63C177.207 161.07 179.048 161.752 181.118 161.752V157.752C179.987 157.752 179.204 157.41 178.596 156.802L175.767 159.63ZM181.118 161.752C183.641 161.752 185.917 161.115 187.842 159.752L185.529 156.488C184.382 157.301 182.946 157.752 181.118 157.752V161.752ZM184.8 158.786L189.312 171.554L193.083 170.222L188.571 157.454L184.8 158.786ZM190.088 169.224C188.814 170.073 187.184 170.726 185.141 171.135L185.926 175.057C188.363 174.57 190.509 173.751 192.307 172.552L190.088 169.224ZM185.088 171.146C183.002 171.623 180.816 171.864 178.526 171.864V175.864C181.099 175.864 183.585 175.593 185.979 175.046L185.088 171.146ZM151.822 136.52V122.888H147.822V136.52H151.822ZM149.822 124.888H187.55V120.888H149.822V124.888ZM185.55 122.888V136.52H189.55V122.888H185.55ZM187.55 134.52H149.822V138.52H187.55V134.52ZM230.007 173H228.007V175H230.007V173ZM230.007 163.304H232.007V162.815L231.781 162.381L230.007 163.304ZM228.759 160.904H226.759V161.393L226.985 161.827L228.759 160.904ZM226.071 136.424L224.712 137.892L224.74 137.918L224.769 137.943L226.071 136.424ZM210.135 135.272L210.71 137.188L210.732 137.181L210.753 137.174L210.135 135.272ZM203.607 138.536L201.815 139.425L202.909 141.628L204.843 140.109L203.607 138.536ZM197.463 126.152L196.37 124.477L194.881 125.448L195.671 127.041L197.463 126.152ZM208.023 121.736L208.508 123.676L208.519 123.674L208.529 123.671L208.023 121.736ZM239.991 125.96L238.698 127.486L238.71 127.496L238.721 127.505L239.991 125.96ZM246.999 173V175H248.999V173H246.999ZM204.087 171.752L204.965 169.955L204.087 171.752ZM197.463 165.992L195.752 167.028L195.762 167.044L195.772 167.06L197.463 165.992ZM197.655 149.576L196.019 148.426L196.012 148.435L197.655 149.576ZM205.239 144.2L205.914 146.083L205.93 146.077L205.945 146.071L205.239 144.2ZM230.679 142.28H232.679V140.28H230.679V142.28ZM230.679 151.784V153.784H232.679V151.784H230.679ZM214.647 153.224L213.408 151.654L213.387 151.671L213.367 151.688L214.647 153.224ZM214.743 160.904L213.504 162.474L213.504 162.474L214.743 160.904ZM225.111 160.904L226.14 162.619L226.15 162.613L226.159 162.607L225.111 160.904ZM228.759 156.296L230.634 155.6L228.768 150.576L226.886 155.594L228.759 156.296ZM231.255 163.016L233.187 163.533L233.352 162.917L233.13 162.32L231.255 163.016ZM225.591 171.176L226.682 172.852L226.692 172.846L225.591 171.176ZM232.007 173V163.304H228.007V173H232.007ZM231.781 162.381L230.533 159.981L226.985 161.827L228.233 164.227L231.781 162.381ZM230.759 160.904V143.048H226.759V160.904H230.759ZM230.759 143.048C230.759 139.725 229.704 136.904 227.373 134.905L224.769 137.943C226.022 139.016 226.759 140.611 226.759 143.048H230.759ZM227.43 134.956C225.159 132.854 221.763 132.024 217.719 132.024V136.024C221.355 136.024 223.527 136.794 224.712 137.892L227.43 134.956ZM217.719 132.024C214.997 132.024 212.261 132.478 209.517 133.37L210.753 137.174C213.129 136.402 215.449 136.024 217.719 136.024V132.024ZM209.56 133.356C206.801 134.184 204.391 135.376 202.371 136.963L204.843 140.109C206.407 138.88 208.349 137.896 210.71 137.188L209.56 133.356ZM205.399 137.647L199.255 125.263L195.671 127.041L201.815 139.425L205.399 137.647ZM198.556 127.827C201.28 126.05 204.586 124.657 208.508 123.676L207.538 119.796C203.268 120.863 199.534 122.414 196.37 124.477L198.556 127.827ZM208.529 123.671C212.532 122.624 216.49 122.104 220.407 122.104V118.104C216.132 118.104 211.834 118.672 207.517 119.801L208.529 123.671ZM220.407 122.104C228.569 122.104 234.572 123.99 238.698 127.486L241.284 124.434C236.194 120.122 229.141 118.104 220.407 118.104V122.104ZM238.721 127.505C242.778 130.839 244.999 136.215 244.999 144.104H248.999C248.999 135.481 246.548 128.761 241.261 124.415L238.721 127.505ZM244.999 144.104V173H248.999V144.104H244.999ZM246.999 171H230.007V175H246.999V171ZM214.647 171.864C210.704 171.864 207.503 171.196 204.965 169.955L203.209 173.549C206.431 175.124 210.27 175.864 214.647 175.864V171.864ZM204.965 169.955C202.379 168.691 200.47 167.007 199.154 164.924L195.772 167.06C197.528 169.841 200.035 171.997 203.209 173.549L204.965 169.955ZM199.174 164.956C197.902 162.855 197.255 160.497 197.255 157.832H193.255C193.255 161.183 194.08 164.265 195.752 167.028L199.174 164.956ZM197.255 157.832C197.255 154.98 197.962 152.64 199.298 150.717L196.012 148.435C194.148 151.12 193.255 154.284 193.255 157.832H197.255ZM199.291 150.726C200.666 148.77 202.814 147.194 205.914 146.083L204.564 142.317C200.88 143.638 197.972 145.646 196.019 148.426L199.291 150.726ZM205.945 146.071C209.03 144.907 213.151 144.28 218.391 144.28V140.28C212.879 140.28 208.232 140.933 204.533 142.329L205.945 146.071ZM218.391 144.28H230.679V140.28H218.391V144.28ZM228.679 142.28V151.784H232.679V142.28H228.679ZM230.679 149.784H220.887V153.784H230.679V149.784ZM220.887 149.784C217.843 149.784 215.177 150.257 213.408 151.654L215.886 154.794C216.549 154.271 218.043 153.784 220.887 153.784V149.784ZM213.367 151.688C211.725 153.056 210.919 154.916 210.919 157.064H214.919C214.919 156.012 215.265 155.312 215.927 154.76L213.367 151.688ZM210.919 157.064C210.919 159.253 211.789 161.12 213.504 162.474L215.982 159.334C215.265 158.768 214.919 158.075 214.919 157.064H210.919ZM213.504 162.474C215.182 163.798 217.335 164.344 219.735 164.344V160.344C217.911 160.344 216.736 159.93 215.982 159.334L213.504 162.474ZM219.735 164.344C222.058 164.344 224.209 163.777 226.14 162.619L224.082 159.189C222.813 159.951 221.38 160.344 219.735 160.344V164.344ZM226.159 162.607C228.247 161.323 229.727 159.41 230.632 156.998L226.886 155.594C226.255 157.278 225.303 158.437 224.063 159.201L226.159 162.607ZM226.884 156.992L229.38 163.712L233.13 162.32L230.634 155.6L226.884 156.992ZM229.323 162.499C228.476 165.661 226.855 167.947 224.49 169.506L226.692 172.846C229.959 170.693 232.114 167.539 233.187 163.533L229.323 162.499ZM224.5 169.5C222.175 171.014 218.947 171.864 214.647 171.864V175.864C219.435 175.864 223.503 174.922 226.682 172.852L224.5 169.5ZM303.344 122.6L302.436 124.382L302.45 124.389L302.464 124.396L303.344 122.6ZM311.024 130.088L309.27 131.048L309.277 131.061L309.284 131.073L311.024 130.088ZM313.904 173V175H315.904V173H313.904ZM295.664 173H293.664V175H295.664V173ZM293.36 138.152L291.838 139.449L291.864 139.479L291.891 139.509L293.36 138.152ZM281.84 136.904L282.763 138.678L282.79 138.664L282.817 138.649L281.84 136.904ZM276.752 173V175H278.752V173H276.752ZM258.512 173H256.512V175H258.512V173ZM258.512 120.968V118.968H256.512V120.968H258.512ZM275.888 120.968H277.888V118.968H275.888V120.968ZM275.888 135.752L274.31 136.98L277.888 141.581V135.752H275.888ZM272.528 131.432L270.758 130.502L270.158 131.643L270.95 132.66L272.528 131.432ZM280.688 122.984L281.635 124.746L281.647 124.739L281.66 124.732L280.688 122.984ZM292.4 122.104C296.149 122.104 299.481 122.875 302.436 124.382L304.253 120.818C300.68 118.997 296.716 118.104 292.4 118.104V122.104ZM302.464 124.396C305.333 125.802 307.599 127.994 309.27 131.048L312.779 129.128C310.738 125.398 307.883 122.598 304.225 120.804L302.464 124.396ZM309.284 131.073C310.981 134.072 311.904 138.084 311.904 143.24H315.904C315.904 137.644 314.907 132.888 312.765 129.103L309.284 131.073ZM311.904 143.24V173H315.904V143.24H311.904ZM313.904 171H295.664V175H313.904V171ZM297.664 173V146.216H293.664V173H297.664ZM297.664 146.216C297.664 142.304 296.868 139.003 294.83 136.795L291.891 139.509C292.925 140.629 293.664 142.704 293.664 146.216H297.664ZM294.883 136.855C292.96 134.598 290.275 133.56 287.12 133.56V137.56C289.341 137.56 290.817 138.25 291.838 139.449L294.883 136.855ZM287.12 133.56C284.875 133.56 282.776 134.088 280.863 135.159L282.817 138.649C284.105 137.928 285.526 137.56 287.12 137.56V133.56ZM280.918 135.13C278.902 136.178 277.37 137.82 276.307 139.946L279.885 141.734C280.614 140.276 281.579 139.294 282.763 138.678L280.918 135.13ZM276.307 139.946C275.225 142.11 274.752 144.784 274.752 147.848H278.752C278.752 145.152 279.175 143.154 279.885 141.734L276.307 139.946ZM274.752 147.848V173H278.752V147.848H274.752ZM276.752 171H258.512V175H276.752V171ZM260.512 173V120.968H256.512V173H260.512ZM258.512 122.968H275.888V118.968H258.512V122.968ZM273.888 120.968V135.752H277.888V120.968H273.888ZM277.467 134.524L274.107 130.204L270.95 132.66L274.31 136.98L277.467 134.524ZM274.299 132.362C276.114 128.907 278.561 126.397 281.635 124.746L279.742 121.222C275.904 123.283 272.91 126.405 270.758 130.502L274.299 132.362ZM281.66 124.732C284.789 122.994 288.353 122.104 292.4 122.104V118.104C287.743 118.104 283.499 119.134 279.717 121.236L281.66 124.732ZM333.036 168.968L331.701 170.457L331.708 170.464L331.715 170.47L333.036 168.968ZM327.468 109.352V107.352H325.468V109.352H327.468ZM345.708 109.352H347.708V107.352H345.708V109.352ZM347.244 158.216L345.788 159.587L345.808 159.609L345.83 159.63L347.244 158.216ZM356.748 158.12L358.634 157.454L357.752 154.958L355.592 156.488L356.748 158.12ZM361.26 170.888L362.369 172.552L363.664 171.689L363.146 170.222L361.26 170.888ZM355.596 173.096L355.204 171.135L355.177 171.14L355.15 171.146L355.596 173.096ZM319.884 136.52H317.884V138.52H319.884V136.52ZM319.884 122.888V120.888H317.884V122.888H319.884ZM357.612 122.888H359.612V120.888H357.612V122.888ZM357.612 136.52V138.52H359.612V136.52H357.612ZM348.588 171.864C342.248 171.864 337.593 170.312 334.357 167.466L331.715 170.47C335.903 174.152 341.616 175.864 348.588 175.864V171.864ZM334.371 167.479C331.211 164.646 329.468 160.28 329.468 153.992H325.468C325.468 161.016 327.437 166.634 331.701 170.457L334.371 167.479ZM329.468 153.992V109.352H325.468V153.992H329.468ZM327.468 111.352H345.708V107.352H327.468V111.352ZM343.708 109.352V153.8H347.708V109.352H343.708ZM343.708 153.8C343.708 156.036 344.335 158.043 345.788 159.587L348.7 156.845C348.105 156.213 347.708 155.276 347.708 153.8H343.708ZM345.83 159.63C347.27 161.07 349.111 161.752 351.18 161.752V157.752C350.049 157.752 349.266 157.41 348.658 156.802L345.83 159.63ZM351.18 161.752C353.703 161.752 355.979 161.115 357.904 159.752L355.592 156.488C354.445 157.301 353.009 157.752 351.18 157.752V161.752ZM354.862 158.786L359.374 171.554L363.146 170.222L358.634 157.454L354.862 158.786ZM360.151 169.224C358.877 170.073 357.247 170.726 355.204 171.135L355.988 175.057C358.425 174.57 360.571 173.751 362.369 172.552L360.151 169.224ZM355.15 171.146C353.065 171.623 350.879 171.864 348.588 171.864V175.864C351.161 175.864 353.647 175.593 356.042 175.046L355.15 171.146ZM321.884 136.52V122.888H317.884V136.52H321.884ZM319.884 124.888H357.612V120.888H319.884V124.888ZM355.612 122.888V136.52H359.612V122.888H355.612ZM357.612 134.52H319.884V138.52H357.612V134.52Z" fill="white" mask="url(#path-2-outside-1_17_4)"/>
</svg>
