<svg width="380" height="117" viewBox="0 0 380 117" fill="none" xmlns="http://www.w3.org/2000/svg">
<mask id="path-1-outside-1_35_3" maskUnits="userSpaceOnUse" x="7" y="13" width="363" height="83" fill="black">
<rect fill="white" x="7" y="13" width="363" height="83"/>
<path d="M11.856 93V40.968H30.096V93H11.856ZM20.976 35.208C17.648 35.208 14.96 34.28 12.912 32.424C10.864 30.568 9.84 28.264 9.84 25.512C9.84 22.76 10.864 20.456 12.912 18.6C14.96 16.744 17.648 15.816 20.976 15.816C24.304 15.816 26.992 16.712 29.04 18.504C31.088 20.232 32.112 22.472 32.112 25.224C32.112 28.104 31.088 30.504 29.04 32.424C27.056 34.28 24.368 35.208 20.976 35.208ZM75.8378 40.104C79.8698 40.104 83.5178 40.936 86.7817 42.6C90.0458 44.2 92.6058 46.696 94.4618 50.088C96.3818 53.48 97.3418 57.864 97.3418 63.24V93H79.1018V66.216C79.1018 62.504 78.3338 59.816 76.7978 58.152C75.3258 56.424 73.2458 55.56 70.5578 55.56C68.6378 55.56 66.8778 56.008 65.2778 56.904C63.6778 57.736 62.4298 59.048 61.5338 60.84C60.6378 62.632 60.1898 64.968 60.1898 67.848V93H41.9498V40.968H59.3258V55.752L55.9658 51.432C57.9498 47.656 60.6698 44.84 64.1258 42.984C67.5818 41.064 71.4858 40.104 75.8378 40.104ZM127.706 93.864C123.29 93.864 118.97 93.352 114.746 92.328C110.586 91.304 107.226 90.024 104.666 88.488L110.138 76.008C112.57 77.48 115.418 78.664 118.682 79.56C121.946 80.392 125.146 80.808 128.281 80.808C131.354 80.808 133.466 80.488 134.618 79.848C135.834 79.208 136.442 78.344 136.442 77.256C136.442 76.232 135.866 75.496 134.714 75.048C133.626 74.536 132.154 74.152 130.298 73.896C128.506 73.64 126.522 73.352 124.346 73.032C122.17 72.712 119.962 72.296 117.722 71.784C115.546 71.208 113.53 70.376 111.674 69.288C109.882 68.136 108.442 66.6 107.354 64.68C106.266 62.76 105.722 60.328 105.722 57.384C105.722 54.056 106.682 51.112 108.602 48.552C110.586 45.928 113.466 43.88 117.242 42.408C121.018 40.872 125.626 40.104 131.066 40.104C134.714 40.104 138.394 40.488 142.106 41.256C145.882 41.96 149.05 43.048 151.61 44.52L146.138 56.904C143.578 55.432 141.018 54.44 138.458 53.928C135.898 53.352 133.466 53.064 131.161 53.064C128.09 53.064 125.914 53.416 124.634 54.12C123.418 54.824 122.81 55.688 122.81 56.712C122.81 57.736 123.354 58.536 124.442 59.112C125.53 59.624 126.97 60.04 128.762 60.36C130.618 60.616 132.634 60.904 134.81 61.224C136.986 61.48 139.162 61.896 141.338 62.472C143.578 63.048 145.594 63.912 147.386 65.064C149.242 66.152 150.714 67.656 151.802 69.576C152.89 71.432 153.434 73.832 153.434 76.776C153.434 79.976 152.442 82.856 150.458 85.416C148.538 87.976 145.658 90.024 141.818 91.56C138.042 93.096 133.338 93.864 127.706 93.864ZM184.526 93.864C177.87 93.864 172.686 92.232 168.974 88.968C165.262 85.64 163.406 80.648 163.406 73.992V29.352H181.646V73.8C181.646 75.656 182.158 77.128 183.182 78.216C184.206 79.24 185.518 79.752 187.118 79.752C189.294 79.752 191.15 79.208 192.686 78.12L197.198 90.888C195.662 91.912 193.774 92.648 191.534 93.096C189.294 93.608 186.958 93.864 184.526 93.864ZM155.822 56.52V42.888H193.55V56.52H155.822ZM236.007 93V83.304L234.759 80.904V63.048C234.759 60.168 233.863 57.96 232.071 56.424C230.343 54.824 227.559 54.024 223.719 54.024C221.223 54.024 218.695 54.44 216.135 55.272C213.575 56.04 211.399 57.128 209.607 58.536L203.463 46.152C206.407 44.232 209.927 42.76 214.023 41.736C218.183 40.648 222.311 40.104 226.407 40.104C234.855 40.104 241.383 42.056 245.991 45.96C250.663 49.8 252.999 55.848 252.999 64.104V93H236.007ZM220.647 93.864C216.487 93.864 212.967 93.16 210.087 91.752C207.207 90.344 204.999 88.424 203.463 85.992C201.991 83.56 201.255 80.84 201.255 77.832C201.255 74.632 202.055 71.88 203.655 69.576C205.319 67.208 207.847 65.416 211.239 64.2C214.631 62.92 219.015 62.28 224.391 62.28H236.679V71.784H226.887C223.943 71.784 221.863 72.264 220.647 73.224C219.495 74.184 218.919 75.464 218.919 77.064C218.919 78.664 219.527 79.944 220.743 80.904C221.959 81.864 223.623 82.344 225.735 82.344C227.719 82.344 229.511 81.864 231.111 80.904C232.775 79.88 233.991 78.344 234.759 76.296L237.255 83.016C236.295 86.6 234.407 89.32 231.591 91.176C228.839 92.968 225.191 93.864 220.647 93.864ZM298.4 40.104C302.432 40.104 306.08 40.936 309.344 42.6C312.608 44.2 315.168 46.696 317.024 50.088C318.944 53.48 319.904 57.864 319.904 63.24V93H301.664V66.216C301.664 62.504 300.896 59.816 299.36 58.152C297.888 56.424 295.808 55.56 293.12 55.56C291.2 55.56 289.44 56.008 287.84 56.904C286.24 57.736 284.992 59.048 284.096 60.84C283.2 62.632 282.752 64.968 282.752 67.848V93H264.512V40.968H281.888V55.752L278.528 51.432C280.512 47.656 283.232 44.84 286.688 42.984C290.144 41.064 294.048 40.104 298.4 40.104ZM354.588 93.864C347.932 93.864 342.748 92.232 339.036 88.968C335.324 85.64 333.468 80.648 333.468 73.992V29.352H351.708V73.8C351.708 75.656 352.22 77.128 353.244 78.216C354.268 79.24 355.58 79.752 357.18 79.752C359.356 79.752 361.212 79.208 362.748 78.12L367.26 90.888C365.724 91.912 363.836 92.648 361.596 93.096C359.356 93.608 357.02 93.864 354.588 93.864ZM325.884 56.52V42.888H363.612V56.52H325.884Z"/>
</mask>
<path d="M11.856 93H9.856V95H11.856V93ZM11.856 40.968V38.968H9.856V40.968H11.856ZM30.096 40.968H32.096V38.968H30.096V40.968ZM30.096 93V95H32.096V93H30.096ZM12.912 32.424L14.255 30.942L14.255 30.942L12.912 32.424ZM12.912 18.6L14.255 20.082L14.255 20.082L12.912 18.6ZM29.04 18.504L27.723 20.0092L27.7365 20.021L27.7503 20.0326L29.04 18.504ZM29.04 32.424L30.4063 33.8845L30.4079 33.8831L29.04 32.424ZM13.856 93V40.968H9.856V93H13.856ZM11.856 42.968H30.096V38.968H11.856V42.968ZM28.096 40.968V93H32.096V40.968H28.096ZM30.096 91H11.856V95H30.096V91ZM20.976 33.208C18.0377 33.208 15.8631 32.3993 14.255 30.942L11.569 33.906C14.0569 36.1607 17.2583 37.208 20.976 37.208V33.208ZM14.255 30.942C12.6233 29.4633 11.84 27.6966 11.84 25.512H7.84C7.84 28.8314 9.10469 31.6727 11.569 33.906L14.255 30.942ZM11.84 25.512C11.84 23.3274 12.6233 21.5607 14.255 20.082L11.569 17.118C9.10468 19.3513 7.84 22.1926 7.84 25.512H11.84ZM14.255 20.082C15.8631 18.6247 18.0377 17.816 20.976 17.816V13.816C17.2583 13.816 14.0569 14.8633 11.569 17.118L14.255 20.082ZM20.976 17.816C23.9322 17.816 26.1163 18.6033 27.723 20.0092L30.357 16.9988C27.8677 14.8207 24.6758 13.816 20.976 13.816V17.816ZM27.7503 20.0326C29.3341 21.3689 30.112 23.0429 30.112 25.224H34.112C34.112 21.901 32.842 19.0951 30.3297 16.9754L27.7503 20.0326ZM30.112 25.224C30.112 27.5674 29.3051 29.434 27.6721 30.9649L30.4079 33.8831C32.8709 31.574 34.112 28.6406 34.112 25.224H30.112ZM27.6737 30.9635C26.1464 32.3922 23.9925 33.208 20.976 33.208V37.208C24.7435 37.208 27.9656 36.1678 30.4063 33.8845L27.6737 30.9635ZM86.7817 42.6L85.8734 44.3818L85.8874 44.3889L85.9014 44.3958L86.7817 42.6ZM94.4618 50.088L92.7072 51.048L92.7141 51.0607L92.7212 51.0732L94.4618 50.088ZM97.3418 93V95H99.3418V93H97.3418ZM79.1018 93H77.1018V95H79.1018V93ZM76.7978 58.152L75.2753 59.4489L75.3011 59.4793L75.3281 59.5086L76.7978 58.152ZM65.2778 56.904L66.2005 58.6784L66.2279 58.6641L66.255 58.649L65.2778 56.904ZM60.1898 93V95H62.1898V93H60.1898ZM41.9498 93H39.9498V95H41.9498V93ZM41.9498 40.968V38.968H39.9498V40.968H41.9498ZM59.3258 40.968H61.3258V38.968H59.3258V40.968ZM59.3258 55.752L57.747 56.9799L61.3258 61.5811V55.752H59.3258ZM55.9658 51.432L54.1953 50.5017L53.5958 51.6426L54.387 52.6599L55.9658 51.432ZM64.1258 42.984L65.072 44.746L65.0846 44.7392L65.097 44.7323L64.1258 42.984ZM75.8378 42.104C79.5863 42.104 82.9181 42.8752 85.8734 44.3818L87.6901 40.8182C84.1174 38.9968 80.1532 38.104 75.8378 38.104V42.104ZM85.9014 44.3958C88.7705 45.8023 91.036 47.9938 92.7072 51.048L96.2163 49.128C94.1755 45.3982 91.321 42.5977 87.6621 40.8042L85.9014 44.3958ZM92.7212 51.0732C94.4187 54.0721 95.3418 58.0844 95.3418 63.24H99.3418C99.3418 57.6436 98.3448 52.8879 96.2023 49.1028L92.7212 51.0732ZM95.3418 63.24V93H99.3418V63.24H95.3418ZM97.3418 91H79.1018V95H97.3418V91ZM81.1018 93V66.216H77.1018V93H81.1018ZM81.1018 66.216C81.1018 62.3037 80.3053 59.0033 78.2674 56.7954L75.3281 59.5086C76.3622 60.6287 77.1018 62.7042 77.1018 66.216H81.1018ZM78.3202 56.8551C76.3973 54.5977 73.7126 53.56 70.5578 53.56V57.56C72.7789 57.56 74.2542 58.2503 75.2753 59.4489L78.3202 56.8551ZM70.5578 53.56C68.3123 53.56 66.2133 54.0878 64.3005 55.159L66.255 58.649C67.5422 57.9282 68.9632 57.56 70.5578 57.56V53.56ZM64.355 55.1296C62.3394 56.1777 60.8076 57.8201 59.7449 59.9456L63.3226 61.7344C64.0519 60.2759 65.0161 59.2943 66.2005 58.6784L64.355 55.1296ZM59.7449 59.9456C58.6628 62.1097 58.1898 64.7839 58.1898 67.848H62.1898C62.1898 65.1521 62.6127 63.1543 63.3226 61.7344L59.7449 59.9456ZM58.1898 67.848V93H62.1898V67.848H58.1898ZM60.1898 91H41.9498V95H60.1898V91ZM43.9498 93V40.968H39.9498V93H43.9498ZM41.9498 42.968H59.3258V38.968H41.9498V42.968ZM57.3258 40.968V55.752H61.3258V40.968H57.3258ZM60.9045 54.5241L57.5445 50.2041L54.387 52.6599L57.747 56.9799L60.9045 54.5241ZM57.7362 52.3623C59.5516 48.9072 61.9984 46.3966 65.072 44.746L63.1795 41.222C59.3411 43.2834 56.3479 46.4048 54.1953 50.5017L57.7362 52.3623ZM65.097 44.7323C68.2267 42.9936 71.7906 42.104 75.8378 42.104V38.104C71.1809 38.104 66.9368 39.1344 63.1545 41.2357L65.097 44.7323ZM114.746 92.328L114.267 94.27L114.274 94.2717L114.746 92.328ZM104.666 88.488L102.834 87.6849L102.127 89.2972L103.637 90.203L104.666 88.488ZM110.138 76.008L111.173 74.297L109.222 73.1159L108.306 75.2049L110.138 76.008ZM118.682 79.56L118.152 81.4887L118.17 81.4935L118.187 81.498L118.682 79.56ZM134.618 79.848L133.686 78.0782L133.666 78.0887L133.646 78.0997L134.618 79.848ZM134.714 75.048L133.862 76.8576L133.924 76.887L133.989 76.912L134.714 75.048ZM130.298 73.896L130.015 75.8759L130.024 75.8772L130.298 73.896ZM124.346 73.032L124.055 75.0107L124.055 75.0107L124.346 73.032ZM117.722 71.784L117.21 73.7174L117.243 73.7261L117.276 73.7337L117.722 71.784ZM111.674 69.288L110.592 70.9704L110.627 70.9926L110.662 71.0134L111.674 69.288ZM107.354 64.68L109.094 63.694L109.094 63.694L107.354 64.68ZM108.602 48.552L107.006 47.3458L107.002 47.352L108.602 48.552ZM117.242 42.408L117.968 44.2714L117.982 44.2661L117.995 44.2606L117.242 42.408ZM142.106 41.256L141.7 43.2145L141.72 43.2185L141.739 43.2221L142.106 41.256ZM151.61 44.52L153.439 45.3283L154.166 43.6829L152.606 42.7862L151.61 44.52ZM146.138 56.904L145.141 58.6378L147.068 59.7462L147.967 57.7123L146.138 56.904ZM138.458 53.928L138.018 55.8792L138.042 55.8845L138.065 55.8892L138.458 53.928ZM124.634 54.12L123.67 52.3676L123.65 52.3781L123.631 52.3891L124.634 54.12ZM124.442 59.112L123.506 60.8796L123.547 60.9016L123.59 60.9216L124.442 59.112ZM128.762 60.36L128.41 62.3289L128.449 62.3358L128.488 62.3412L128.762 60.36ZM134.81 61.224L134.519 63.2027L134.547 63.2069L134.576 63.2103L134.81 61.224ZM141.338 62.472L140.826 64.4054L140.833 64.4072L140.839 64.409L141.338 62.472ZM147.386 65.064L146.304 66.7464L146.339 66.7686L146.374 66.7894L147.386 65.064ZM151.802 69.576L150.061 70.562L150.069 70.5748L150.076 70.5874L151.802 69.576ZM150.458 85.416L148.877 84.1909L148.867 84.2034L148.858 84.216L150.458 85.416ZM141.818 91.56L141.075 89.703L141.064 89.7074L141.818 91.56ZM127.706 91.864C123.446 91.864 119.284 91.3703 115.217 90.3843L114.274 94.2717C118.655 95.3337 123.133 95.864 127.706 95.864V91.864ZM115.224 90.386C111.181 89.3908 108.027 88.1722 105.694 86.773L103.637 90.203C106.424 91.8758 109.99 93.2172 114.267 94.27L115.224 90.386ZM106.497 89.2911L111.969 76.8111L108.306 75.2049L102.834 87.6849L106.497 89.2911ZM109.102 77.719C111.718 79.3027 114.743 80.5528 118.152 81.4887L119.211 77.6313C116.092 76.7752 113.421 75.6573 111.173 74.297L109.102 77.719ZM118.187 81.498C121.601 82.3682 124.967 82.808 128.281 82.808V78.808C125.324 78.808 122.29 78.4158 119.176 77.622L118.187 81.498ZM128.281 82.808C129.878 82.808 131.281 82.7254 132.469 82.5454C133.633 82.3691 134.715 82.0816 135.589 81.5963L133.646 78.0997C133.368 78.2544 132.818 78.4469 131.87 78.5906C130.946 78.7306 129.757 78.808 128.281 78.808V82.808ZM135.549 81.6178C137.218 80.7394 138.442 79.2919 138.442 77.256H134.442C134.442 77.3961 134.449 77.6766 133.686 78.0782L135.549 81.6178ZM138.442 77.256C138.442 76.3426 138.175 75.4574 137.585 74.7034C137.015 73.9752 136.244 73.4974 135.438 73.184L133.989 76.912C134.335 77.0466 134.428 77.1608 134.434 77.1686C134.437 77.1715 134.436 77.1713 134.435 77.1685C134.433 77.1656 134.433 77.1637 134.433 77.1641C134.433 77.1646 134.435 77.1709 134.437 77.1846C134.439 77.1986 134.442 77.2218 134.442 77.256H138.442ZM135.565 73.2384C134.222 72.6062 132.529 72.1848 130.571 71.9148L130.024 75.8772C131.778 76.1192 133.029 76.4658 133.862 76.8576L135.565 73.2384ZM130.58 71.9161C128.792 71.6606 126.81 71.373 124.636 71.0533L124.055 75.0107C126.233 75.331 128.219 75.6194 130.015 75.8759L130.58 71.9161ZM124.636 71.0533C122.515 70.7412 120.358 70.3351 118.167 69.8343L117.276 73.7337C119.565 74.2569 121.824 74.6828 124.055 75.0107L124.636 71.0533ZM118.233 69.8506C116.224 69.3188 114.377 68.5548 112.685 67.5626L110.662 71.0134C112.682 72.1972 114.867 73.0972 117.21 73.7174L118.233 69.8506ZM112.755 67.6056C111.246 66.6354 110.028 65.3424 109.094 63.694L105.613 65.666C106.855 67.8576 108.517 69.6366 110.592 70.9704L112.755 67.6056ZM109.094 63.694C108.224 62.1587 107.722 60.0938 107.722 57.384H103.722C103.722 60.5622 104.307 63.3613 105.613 65.666L109.094 63.694ZM107.722 57.384C107.722 54.4702 108.552 51.9513 110.202 49.752L107.002 47.352C104.811 50.2727 103.722 53.6418 103.722 57.384H107.722ZM110.197 49.7582C111.911 47.4911 114.457 45.6401 117.968 44.2714L116.515 40.5446C112.474 42.1199 109.26 44.3649 107.006 47.3458L110.197 49.7582ZM117.995 44.2606C121.466 42.8486 125.802 42.104 131.066 42.104V38.104C125.449 38.104 120.569 38.8954 116.488 40.5554L117.995 44.2606ZM131.066 42.104C134.572 42.104 138.116 42.473 141.7 43.2145L142.511 39.2975C138.671 38.503 134.855 38.104 131.066 38.104V42.104ZM141.739 43.2221C145.356 43.8965 148.297 44.9223 150.613 46.2538L152.606 42.7862C149.802 41.1737 146.407 40.0235 142.472 39.2899L141.739 43.2221ZM149.78 43.7117L144.308 56.0957L147.967 57.7123L153.439 45.3283L149.78 43.7117ZM147.134 55.1702C144.411 53.6041 141.648 52.5265 138.85 51.9668L138.065 55.8892C140.387 56.3535 142.744 57.2599 145.141 58.6378L147.134 55.1702ZM138.897 51.9768C136.212 51.3727 133.632 51.064 131.161 51.064V55.064C133.299 55.064 135.583 55.3313 138.018 55.8792L138.897 51.9768ZM131.161 51.064C128.047 51.064 125.425 51.4019 123.67 52.3676L125.597 55.8724C126.402 55.4301 128.132 55.064 131.161 55.064V51.064ZM123.631 52.3891C122.057 53.3009 120.81 54.7187 120.81 56.712H124.81C124.81 56.6573 124.778 56.3471 125.636 55.8508L123.631 52.3891ZM120.81 56.712C120.81 58.6408 121.922 60.041 123.506 60.8796L125.377 57.3444C125.045 57.1684 124.917 57.0222 124.871 56.9554C124.838 56.9069 124.81 56.8476 124.81 56.712H120.81ZM123.59 60.9216C124.896 61.5362 126.524 61.9921 128.41 62.3289L129.113 58.3911C127.415 58.0879 126.163 57.7118 125.293 57.3024L123.59 60.9216ZM128.488 62.3412C130.337 62.5963 132.347 62.8834 134.519 63.2027L135.1 59.2453C132.92 58.9246 130.898 58.6357 129.035 58.3788L128.488 62.3412ZM134.576 63.2103C136.655 63.455 138.739 63.8529 140.826 64.4054L141.849 60.5386C139.584 59.9391 137.316 59.505 135.043 59.2377L134.576 63.2103ZM140.839 64.409C142.89 64.9363 144.706 65.7193 146.304 66.7464L148.467 63.3816C146.481 62.1047 144.265 61.1597 141.836 60.535L140.839 64.409ZM146.374 66.7894C147.918 67.6946 149.142 68.94 150.061 70.562L153.542 68.59C152.285 66.372 150.565 64.6094 148.397 63.3386L146.374 66.7894ZM150.076 70.5874C150.93 72.0439 151.434 74.0619 151.434 76.776H155.434C155.434 73.6021 154.849 70.8201 153.527 68.5646L150.076 70.5874ZM151.434 76.776C151.434 79.5266 150.593 81.9768 148.877 84.1909L152.038 86.6411C154.29 83.7352 155.434 80.4254 155.434 76.776H151.434ZM148.858 84.216C147.213 86.4084 144.672 88.2642 141.075 89.703L142.56 93.417C146.643 91.7838 149.862 89.5436 152.058 86.616L148.858 84.216ZM141.064 89.7074C137.6 91.1166 133.171 91.864 127.706 91.864V95.864C133.504 95.864 138.483 95.0754 142.571 93.4126L141.064 89.7074ZM168.974 88.968L167.638 90.4571L167.646 90.4636L167.653 90.4699L168.974 88.968ZM163.406 29.352V27.352H161.406V29.352H163.406ZM181.646 29.352H183.646V27.352H181.646V29.352ZM183.182 78.216L181.725 79.5867L181.746 79.6088L181.767 79.6302L183.182 78.216ZM192.686 78.12L194.571 77.4536L193.689 74.958L191.529 76.488L192.686 78.12ZM197.198 90.888L198.307 92.5521L199.602 91.6889L199.083 90.2216L197.198 90.888ZM191.534 93.096L191.141 91.1348L191.114 91.1402L191.088 91.1463L191.534 93.096ZM155.822 56.52H153.822V58.52H155.822V56.52ZM155.822 42.888V40.888H153.822V42.888H155.822ZM193.55 42.888H195.55V40.888H193.55V42.888ZM193.55 56.52V58.52H195.55V56.52H193.55ZM184.526 91.864C178.185 91.864 173.531 90.3121 170.294 87.4661L167.653 90.4699C171.84 94.1519 177.554 95.864 184.526 95.864V91.864ZM170.309 87.4789C167.149 84.646 165.406 80.2798 165.406 73.992H161.406C161.406 81.0162 163.374 86.634 167.638 90.4571L170.309 87.4789ZM165.406 73.992V29.352H161.406V73.992H165.406ZM163.406 31.352H181.646V27.352H163.406V31.352ZM179.646 29.352V73.8H183.646V29.352H179.646ZM179.646 73.8C179.646 76.0361 180.272 78.0431 181.725 79.5867L184.638 76.8453C184.043 76.2129 183.646 75.2759 183.646 73.8H179.646ZM181.767 79.6302C183.207 81.0703 185.048 81.752 187.118 81.752V77.752C185.987 77.752 185.204 77.4097 184.596 76.8018L181.767 79.6302ZM187.118 81.752C189.641 81.752 191.917 81.1153 193.842 79.752L191.529 76.488C190.382 77.3007 188.946 77.752 187.118 77.752V81.752ZM190.8 78.7864L195.312 91.5544L199.083 90.2216L194.571 77.4536L190.8 78.7864ZM196.088 89.2239C194.814 90.073 193.184 90.7263 191.141 91.1348L191.926 95.0572C194.363 94.5697 196.509 93.751 198.307 92.5521L196.088 89.2239ZM191.088 91.1463C189.002 91.623 186.816 91.864 184.526 91.864V95.864C187.099 95.864 189.585 95.593 191.979 95.0457L191.088 91.1463ZM157.822 56.52V42.888H153.822V56.52H157.822ZM155.822 44.888H193.55V40.888H155.822V44.888ZM191.55 42.888V56.52H195.55V42.888H191.55ZM193.55 54.52H155.822V58.52H193.55V54.52ZM236.007 93H234.007V95H236.007V93ZM236.007 83.304H238.007V82.8151L237.781 82.3813L236.007 83.304ZM234.759 80.904H232.759V81.3929L232.985 81.8267L234.759 80.904ZM232.071 56.424L230.712 57.8915L230.74 57.9176L230.769 57.9425L232.071 56.424ZM216.135 55.272L216.71 57.1877L216.732 57.1811L216.753 57.1741L216.135 55.272ZM209.607 58.536L207.815 59.4249L208.909 61.6283L210.843 60.1086L209.607 58.536ZM203.463 46.152L202.37 44.4768L200.881 45.4481L201.671 47.0409L203.463 46.152ZM214.023 41.736L214.508 43.6763L214.519 43.6737L214.529 43.6709L214.023 41.736ZM245.991 45.96L244.698 47.486L244.71 47.4956L244.721 47.5051L245.991 45.96ZM252.999 93V95H254.999V93H252.999ZM210.087 91.752L210.965 89.9552L210.087 91.752ZM203.463 85.992L201.752 87.0276L201.762 87.0439L201.772 87.06L203.463 85.992ZM203.655 69.576L202.019 68.4261L202.012 68.4352L203.655 69.576ZM211.239 64.2L211.914 66.0827L211.93 66.0771L211.945 66.0712L211.239 64.2ZM236.679 62.28H238.679V60.28H236.679V62.28ZM236.679 71.784V73.784H238.679V71.784H236.679ZM220.647 73.224L219.408 71.6542L219.387 71.6706L219.367 71.6876L220.647 73.224ZM220.743 80.904L219.504 82.4738L219.504 82.4738L220.743 80.904ZM231.111 80.904L232.14 82.619L232.15 82.6132L232.159 82.6073L231.111 80.904ZM234.759 76.296L236.634 75.5996L234.768 70.5761L232.886 75.5938L234.759 76.296ZM237.255 83.016L239.187 83.5335L239.352 82.9175L239.13 82.3196L237.255 83.016ZM231.591 91.176L232.682 92.852L232.692 92.8459L231.591 91.176ZM238.007 93V83.304H234.007V93H238.007ZM237.781 82.3813L236.533 79.9813L232.985 81.8267L234.233 84.2267L237.781 82.3813ZM236.759 80.904V63.048H232.759V80.904H236.759ZM236.759 63.048C236.759 59.7246 235.704 56.9042 233.373 54.9055L230.769 57.9425C232.022 59.0158 232.759 60.6114 232.759 63.048H236.759ZM233.43 54.9565C231.159 52.8539 227.763 52.024 223.719 52.024V56.024C227.355 56.024 229.527 56.7941 230.712 57.8915L233.43 54.9565ZM223.719 52.024C220.997 52.024 218.261 52.4781 215.517 53.3699L216.753 57.1741C219.129 56.4019 221.449 56.024 223.719 56.024V52.024ZM215.56 53.3563C212.801 54.1841 210.391 55.3764 208.371 56.9634L210.843 60.1086C212.407 58.8796 214.349 57.8959 216.71 57.1877L215.56 53.3563ZM211.399 57.6471L205.255 45.2631L201.671 47.0409L207.815 59.4249L211.399 57.6471ZM204.556 47.8272C207.28 46.0504 210.586 44.6569 214.508 43.6763L213.538 39.7957C209.268 40.8631 205.534 42.4136 202.37 44.4768L204.556 47.8272ZM214.529 43.6709C218.532 42.624 222.49 42.104 226.407 42.104V38.104C222.132 38.104 217.834 38.672 213.517 39.8011L214.529 43.6709ZM226.407 42.104C234.569 42.104 240.572 43.9905 244.698 47.486L247.284 44.434C242.194 40.1215 235.141 38.104 226.407 38.104V42.104ZM244.721 47.5051C248.778 50.8394 250.999 56.2152 250.999 64.104H254.999C254.999 55.4808 252.548 48.7606 247.261 44.4149L244.721 47.5051ZM250.999 64.104V93H254.999V64.104H250.999ZM252.999 91H236.007V95H252.999V91ZM220.647 91.864C216.704 91.864 213.503 91.1958 210.965 89.9552L209.209 93.5488C212.431 95.1242 216.27 95.864 220.647 95.864V91.864ZM210.965 89.9552C208.379 88.6909 206.47 87.0074 205.154 84.924L201.772 87.06C203.528 89.8406 206.035 91.9971 209.209 93.5488L210.965 89.9552ZM205.174 84.9564C203.902 82.8551 203.255 80.497 203.255 77.832H199.255C199.255 81.183 200.08 84.2649 201.752 87.0276L205.174 84.9564ZM203.255 77.832C203.255 74.9804 203.962 72.6401 205.298 70.7168L202.012 68.4352C200.148 71.1199 199.255 74.2836 199.255 77.832H203.255ZM205.291 70.7259C206.666 68.7703 208.814 67.1939 211.914 66.0827L210.564 62.3173C206.88 63.6381 203.972 65.6457 202.019 68.4261L205.291 70.7259ZM211.945 66.0712C215.03 64.907 219.151 64.28 224.391 64.28V60.28C218.879 60.28 214.232 60.933 210.533 62.3288L211.945 66.0712ZM224.391 64.28H236.679V60.28H224.391V64.28ZM234.679 62.28V71.784H238.679V62.28H234.679ZM236.679 69.784H226.887V73.784H236.679V69.784ZM226.887 69.784C223.843 69.784 221.177 70.2572 219.408 71.6542L221.886 74.7938C222.549 74.2708 224.043 73.784 226.887 73.784V69.784ZM219.367 71.6876C217.725 73.0557 216.919 74.9158 216.919 77.064H220.919C220.919 76.0122 221.265 75.3123 221.927 74.7604L219.367 71.6876ZM216.919 77.064C216.919 79.2528 217.789 81.1203 219.504 82.4738L221.982 79.3342C221.265 78.7677 220.919 78.0752 220.919 77.064H216.919ZM219.504 82.4738C221.182 83.7985 223.335 84.344 225.735 84.344V80.344C223.911 80.344 222.736 79.9295 221.982 79.3342L219.504 82.4738ZM225.735 84.344C228.058 84.344 230.209 83.7774 232.14 82.619L230.082 79.189C228.813 79.9506 227.38 80.344 225.735 80.344V84.344ZM232.159 82.6073C234.247 81.3227 235.727 79.4098 236.632 76.9982L232.886 75.5938C232.255 77.2782 231.303 78.4373 230.063 79.2007L232.159 82.6073ZM232.884 76.9924L235.38 83.7124L239.13 82.3196L236.634 75.5996L232.884 76.9924ZM235.323 82.4985C234.476 85.6607 232.855 87.9473 230.49 89.5061L232.692 92.8459C235.959 90.6927 238.114 87.5393 239.187 83.5335L235.323 82.4985ZM230.5 89.5C228.175 91.0139 224.947 91.864 220.647 91.864V95.864C225.435 95.864 229.503 94.9221 232.682 92.852L230.5 89.5ZM309.344 42.6L308.436 44.3818L308.45 44.3889L308.464 44.3958L309.344 42.6ZM317.024 50.088L315.27 51.048L315.277 51.0607L315.284 51.0732L317.024 50.088ZM319.904 93V95H321.904V93H319.904ZM301.664 93H299.664V95H301.664V93ZM299.36 58.152L297.838 59.4489L297.864 59.4793L297.891 59.5086L299.36 58.152ZM287.84 56.904L288.763 58.6784L288.79 58.6641L288.817 58.649L287.84 56.904ZM282.752 93V95H284.752V93H282.752ZM264.512 93H262.512V95H264.512V93ZM264.512 40.968V38.968H262.512V40.968H264.512ZM281.888 40.968H283.888V38.968H281.888V40.968ZM281.888 55.752L280.31 56.9799L283.888 61.5811V55.752H281.888ZM278.528 51.432L276.758 50.5017L276.158 51.6426L276.95 52.6599L278.528 51.432ZM286.688 42.984L287.635 44.746L287.647 44.7392L287.66 44.7323L286.688 42.984ZM298.4 42.104C302.149 42.104 305.481 42.8752 308.436 44.3818L310.253 40.8182C306.68 38.9968 302.716 38.104 298.4 38.104V42.104ZM308.464 44.3958C311.333 45.8023 313.599 47.9938 315.27 51.048L318.779 49.128C316.738 45.3982 313.883 42.5977 310.225 40.8042L308.464 44.3958ZM315.284 51.0732C316.981 54.0721 317.904 58.0844 317.904 63.24H321.904C321.904 57.6436 320.907 52.8879 318.765 49.1028L315.284 51.0732ZM317.904 63.24V93H321.904V63.24H317.904ZM319.904 91H301.664V95H319.904V91ZM303.664 93V66.216H299.664V93H303.664ZM303.664 66.216C303.664 62.3037 302.868 59.0033 300.83 56.7954L297.891 59.5086C298.925 60.6287 299.664 62.7042 299.664 66.216H303.664ZM300.883 56.8551C298.96 54.5977 296.275 53.56 293.12 53.56V57.56C295.341 57.56 296.817 58.2503 297.838 59.4489L300.883 56.8551ZM293.12 53.56C290.875 53.56 288.776 54.0878 286.863 55.159L288.817 58.649C290.105 57.9282 291.526 57.56 293.12 57.56V53.56ZM286.918 55.1296C284.902 56.1777 283.37 57.8201 282.307 59.9456L285.885 61.7344C286.614 60.2759 287.579 59.2943 288.763 58.6784L286.918 55.1296ZM282.307 59.9456C281.225 62.1097 280.752 64.7839 280.752 67.848H284.752C284.752 65.1521 285.175 63.1543 285.885 61.7344L282.307 59.9456ZM280.752 67.848V93H284.752V67.848H280.752ZM282.752 91H264.512V95H282.752V91ZM266.512 93V40.968H262.512V93H266.512ZM264.512 42.968H281.888V38.968H264.512V42.968ZM279.888 40.968V55.752H283.888V40.968H279.888ZM283.467 54.5241L280.107 50.2041L276.95 52.6599L280.31 56.9799L283.467 54.5241ZM280.299 52.3623C282.114 48.9072 284.561 46.3966 287.635 44.746L285.742 41.222C281.904 43.2834 278.91 46.4048 276.758 50.5017L280.299 52.3623ZM287.66 44.7323C290.789 42.9936 294.353 42.104 298.4 42.104V38.104C293.743 38.104 289.499 39.1344 285.717 41.2357L287.66 44.7323ZM339.036 88.968L337.701 90.4571L337.708 90.4636L337.715 90.4699L339.036 88.968ZM333.468 29.352V27.352H331.468V29.352H333.468ZM351.708 29.352H353.708V27.352H351.708V29.352ZM353.244 78.216L351.788 79.5867L351.808 79.6088L351.83 79.6302L353.244 78.216ZM362.748 78.12L364.634 77.4536L363.752 74.958L361.592 76.488L362.748 78.12ZM367.26 90.888L368.369 92.5521L369.664 91.6889L369.146 90.2216L367.26 90.888ZM361.596 93.096L361.204 91.1348L361.177 91.1402L361.15 91.1463L361.596 93.096ZM325.884 56.52H323.884V58.52H325.884V56.52ZM325.884 42.888V40.888H323.884V42.888H325.884ZM363.612 42.888H365.612V40.888H363.612V42.888ZM363.612 56.52V58.52H365.612V56.52H363.612ZM354.588 91.864C348.248 91.864 343.593 90.3121 340.357 87.4661L337.715 90.4699C341.903 94.1519 347.616 95.864 354.588 95.864V91.864ZM340.371 87.4789C337.211 84.646 335.468 80.2798 335.468 73.992H331.468C331.468 81.0162 333.437 86.634 337.701 90.4571L340.371 87.4789ZM335.468 73.992V29.352H331.468V73.992H335.468ZM333.468 31.352H351.708V27.352H333.468V31.352ZM349.708 29.352V73.8H353.708V29.352H349.708ZM349.708 73.8C349.708 76.0361 350.335 78.0431 351.788 79.5867L354.7 76.8453C354.105 76.2129 353.708 75.2759 353.708 73.8H349.708ZM351.83 79.6302C353.27 81.0703 355.111 81.752 357.18 81.752V77.752C356.049 77.752 355.266 77.4097 354.658 76.8018L351.83 79.6302ZM357.18 81.752C359.703 81.752 361.979 81.1153 363.904 79.752L361.592 76.488C360.445 77.3007 359.009 77.752 357.18 77.752V81.752ZM360.862 78.7864L365.374 91.5544L369.146 90.2216L364.634 77.4536L360.862 78.7864ZM366.151 89.2239C364.877 90.073 363.247 90.7263 361.204 91.1348L361.988 95.0572C364.425 94.5697 366.571 93.751 368.369 92.5521L366.151 89.2239ZM361.15 91.1463C359.065 91.623 356.879 91.864 354.588 91.864V95.864C357.161 95.864 359.647 95.593 362.042 95.0457L361.15 91.1463ZM327.884 56.52V42.888H323.884V56.52H327.884ZM325.884 44.888H363.612V40.888H325.884V44.888ZM361.612 42.888V56.52H365.612V42.888H361.612ZM363.612 54.52H325.884V58.52H363.612V54.52Z" fill="white" mask="url(#path-1-outside-1_35_3)"/>
</svg>
