<svg height="386pt" preserveAspectRatio="xMidYMid meet" viewBox="0 0 389 386" width="389pt" xmlns="http://www.w3.org/2000/svg"><path d="m1323 3835c-272-49-535-210-690-422-35-47-70-79-128-117-278-182-460-480-495-811-6-52-10-594-10-1282v-1193h1243c1056 0 1255 2 1327 15 267 47 511 195 671 407 34 47 78 92 99 104 192 109 368 314 456 532 84 208 78 99 81 1520l4 1262-1243-1c-974-1-1259-4-1315-14zm-895-876c-9-34-13-344-15-1312l-4-1268 1258 3c692 2 1267 7 1278 11 30 13-28-32-97-75-75-46-187-93-275-115-61-15-182-17-1230-20l-1163-4v1144c0 755 4 1163 11 1203 25 144 101 313 190 422 28 35 53 61 55 59 3-2-1-24-8-48z" transform="matrix(.1 0 0 -.1 0 386)" fill="#164383"/></svg>