<svg height="14" viewBox="0 0 15 14" width="15" xmlns="http://www.w3.org/2000/svg" xmlns:xlink="http://www.w3.org/1999/xlink"><mask id="a" fill="#fff"><path d="m0 0h14.5052632v13.9989835h-14.5052632z" fill="#fff" fill-rule="evenodd"/></mask><mask id="b" fill="#fff"><path d="m0 0h14.5052174v13.9658366h-14.5052174z" fill="#fff" fill-rule="evenodd"/></mask><g fill="none" fill-rule="evenodd" transform="translate(.0677)"><path d="m14.5052632 6.99946965c0 3.86572045-3.2471313 6.99955805-7.25263162 6.99955805-4.00550035 0-7.25263158-3.1338376-7.25263158-6.99955805s3.24713123-6.99946965 7.25263158-6.99946965c4.00550032 0 7.25263162 3.1337492 7.25263162 6.99946965" fill="#fff" mask="url(#a)" transform="translate(0 .001)"/><path d="m8.69697628 13.8452704c.00018316-1.7837435.00018316-3.5595318.00018316-5.34327527 0-.02192113.00018316-.03977625.0004579-.06169738.00027474-.02678267.01456113-.0380968.04212653-.03827358.02463486-.00017678.04908657.00061874.07362985.00061874 1.84871358-.00008839 3.69742718.00035357 5.54604918.00035357.095609-.45327239.1457945-.93668633.1457945-1.41718334s-.0501855-.97522508-.1457945-1.41718334h-5.55163553c-.11062793 0-.11062793.01440784-.11062793-.09183892 0-1.78374351 0-3.56209514-.00018316-5.34583865-.40423152-.07884535-.82064311-.13099643-1.24621264-.13099643h-.39626412c-.43207167 0-.85471066.06063668-1.26480327.14169182-.00018316 1.78250603-.00009158 3.56607276-.00018316 5.34857879 0 .02192113-.00018315.04419582-.00036631.06611695-.00036632.02678267-.01465271.0403066-.04221811.04048338-.02454329.00017678-.04908657.00053035-.07362985.00053035-1.8424862 0-3.6849724.00008839-5.5274586.00008839-.09560891.45327239-.14588601.91936156-.14588601 1.39985857 0 .48058541.0502771.95790032.14588601 1.39985858h5.53313652c.11053635 0 .11062793.00327049.11062793.10951725 0 1.78250602-.00009158 3.55095782.00009158 5.33355222.41018419.0810551.83300634.1256045 1.26526117.1256045h.39534832c.42575269 0 .84225586-.0417208 1.24667054-.1205662" fill="#ff1300" mask="url(#b)"/><path d="m4.83332329 4.17299635c0-1.25754801 0-2.51500764-.00009158-3.77255565-1.3131572.44841084-2.45277141 1.25109542-3.29493569 2.28952053 1.06561805.51426263 2.13123609 1.02852525 3.19685414 1.54278788.09808155.04728953.09817313.04720114.09817313-.05975276" fill="#3c3b6e"/><path d="m9.74643972 4.23520639c1.07184548-.51717954 2.14359928-1.03444748 3.21544478-1.55171542-.8456443-1.04019295-1.9901122-1.84314271-3.30839788-2.28934376-.00009158 1.26143725-.00009158 2.5228745-.00009158 3.78431174 0 .10023614.00128211.10103166.09304468.05674744" fill="#3c3b6e"/><path d="m4.74020534 9.76583663c-1.06735805.51505817-2.13462453 1.03011627-3.20198258 1.54517447.84225586 1.0384251 1.98177849 1.8411097 3.29502727 2.2895205.00009158-1.2593158.00009158-2.5186317.00009158-3.77803592 0-.10023614-.0013737-.10094327-.09313627-.05665905" fill="#3c3b6e"/><path d="m9.65337672 9.82802015c0 1.25958105 0 2.51925045.00009158 3.77883145 1.3182856-.446201 2.4627536-1.2490624 3.3083979-2.2892553-1.0701971-.5164725-2.1402109-1.0329449-3.21031635-1.5493289-.09808155-.04728954-.09817313-.04720114-.09817313.05975275" fill="#3c3b6e"/><g fill="#ff1300"><path d="m9.99230297 4.62461581c-.02124642.01025343-.04954446.01449623-.0596182.04313513.02948857.01078378.05613818.00654098.08223833.00654098.6512212.00026517 1.302534-.00053035 1.9538468.00115063.0739961.00017524.1394754-.01485134.2055957-.04684911.5224606-.25226978 1.0450127-.50427437 1.5673817-.75645575-.1471681-.28391398-.3136595-.55677901-.4980089-.81700403-.0726224.03509149-.1453365.07018297-.217959.10518607-1.0112198.4880103-2.0224397.97593221-3.03347643 1.46429608"/><path d="m4.49431462 9.37643605c.021338-.01025343.04954446-.01458462.05970978-.04304674-.02939699-.01096056-.05613818-.00662937-.08214674-.00662937-.65131278-.00026517-1.30262556.00044196-1.95384676-.00123901-.07408775-.00017526-.13947545.01493972-.20568736.0468491-.51742369.2498832-1.03503053.49950122-1.55254579.74938437.14689338.2840024.31292686.5570442.4969099.817446.0680435-.0327933.136087-.065675.20413051-.0984683 1.01121987-.4880103 2.02243974-.97593218 3.03347646-1.46429605"/><path d="m2.40462811 4.66086523c-.02692435-.01370071-.04780445-.02492645-.06923404-.03517988-.52328476-.25253495-1.04656952-.50506989-1.56985429-.75760484-.13517121.26022502-.25394971.52973117-.35514496.80719256.64297906-.00114909 1.28595811-.00079553 1.92893717-.0010607.0191401 0 .04038652.0052151.06529612-.01334714"/><path d="m12.0879147 9.33577589c.0188653.02448449.0455149.0306719.0685014.04172086.5265816.25421439 1.0531632.50825199 1.5796533.76237795.136728-.26234638.256697-.5342391.3588081-.81417546-.6491149.00123748-1.2983213.00079553-1.9474362.00114909-.0191401 0-.0403865-.0053035-.0595266.00892756"/></g></g></svg>