<svg height="14" viewBox="0 0 15 14" width="15" xmlns="http://www.w3.org/2000/svg"><g fill="none" fill-rule="evenodd" transform="translate(.2737)"><path d="m9.63285098.39558684v13.20882636c2.84662512-.9584065 4.87241222-3.5531663 4.87241222-6.60445739 0-3.05120273-2.0257871-5.6459625-4.87241222-6.60436897" fill="#ff1300"/><path d="m7.25264994 0c-.85444668 0-1.66013342.14142307-2.39474637.40049246v13.19901504c.73461295.2590694 1.54029969.4004925 2.39474637.4004925.84893709 0 1.64562483-.1396553 2.38023777-.3955426v-13.20891475c-.73461294-.25588737-1.53130068-.39554265-2.38023777-.39554265" fill="#fff"/><path d="m0 7c0 3.0459878 2.01127841 5.6371236 4.85790357 6.5995075v-13.19901504c-2.84662516.96238398-4.85790357 3.55351979-4.85790357 6.59950754" fill="#00995a"/></g></svg>